<svg width="19" height="23" viewBox="0 0 19 23" fill="none" xmlns="http://www.w3.org/2000/svg">
<path d="M9.17507 22.6917C10.4217 22.6917 11.4417 21.6717 11.4417 20.425H6.9084C6.9084 21.0262 7.14721 21.6027 7.57229 22.0278C7.99737 22.4529 8.57391 22.6917 9.17507 22.6917ZM15.9751 15.8917V10.225C15.9751 6.74567 14.1164 3.83301 10.8751 3.06234V2.29167C10.8751 1.35101 10.1157 0.591675 9.17507 0.591675C8.2344 0.591675 7.47507 1.35101 7.47507 2.29167V3.06234C4.2224 3.83301 2.37507 6.73434 2.37507 10.225V15.8917L0.108398 18.1583V19.2917H18.2417V18.1583L15.9751 15.8917Z" fill="url(#paint0_linear_3449_3062)"/>
<defs>
<linearGradient id="paint0_linear_3449_3062" x1="0.108398" y1="11.6417" x2="18.2417" y2="11.6417" gradientUnits="userSpaceOnUse">
<stop stop-color="#8F61FF"/>
<stop offset="0.529" stop-color="#4756FF"/>
<stop offset="1" stop-color="#03C6FF"/>
</linearGradient>
</defs>
</svg>
