<svg width="18" height="14" viewBox="0 0 18 14" fill="none" xmlns="http://www.w3.org/2000/svg">
<path d="M5.79466 10.5214L2.50155 7.22831C2.50149 7.22825 2.50143 7.22819 2.50137 7.22814C2.26766 6.99399 1.95041 6.8624 1.61957 6.8624C1.28874 6.8624 0.971506 6.99398 0.737794 7.22811C0.250163 7.71574 0.250163 8.50403 0.737794 8.99166L4.91779 13.1717C5.40542 13.6593 6.19372 13.6593 6.68135 13.1717L17.2613 2.59166C17.7489 2.10407 17.749 1.31586 17.2615 0.828223M5.79466 10.5214L15.4979 0.828022C15.7316 0.593944 16.0488 0.462402 16.3796 0.462402C16.7104 0.462402 17.0277 0.594019 17.2615 0.828223M5.79466 10.5214L15.4976 0.82831L5.79466 10.5214ZM17.2615 0.828223C17.2615 0.828252 17.2615 0.828281 17.2615 0.82831L17.0846 1.00489L17.2613 0.828111C17.2614 0.828148 17.2614 0.828186 17.2615 0.828223Z" fill="white" stroke="white" stroke-width="0.5"/>
</svg>
