<svg width="21" height="20" viewBox="0 0 21 20" fill="none" xmlns="http://www.w3.org/2000/svg">
<path fill-rule="evenodd" clip-rule="evenodd" d="M3.89964 2.92898C7.80286 -0.974252 14.1385 -0.974252 18.0418 2.92898C21.945 6.83221 21.945 13.1679 18.0418 17.0711C14.1385 20.9743 7.80287 20.9743 3.89964 17.0711C-0.00359392 13.1679 -0.00359425 6.83221 3.89964 2.92898ZM10.9707 11.4143L13.092 13.5356C13.4809 13.9245 14.1173 13.9245 14.5062 13.5356C14.8951 13.1467 14.8951 12.5103 14.5062 12.1214L12.3849 10L14.5062 7.87873C14.8951 7.48982 14.8951 6.85342 14.5062 6.46451C14.1173 6.0756 13.4809 6.0756 13.092 6.46451L10.9707 8.58583L8.84938 6.46451C8.46047 6.0756 7.82408 6.0756 7.43517 6.46451C7.04626 6.85342 7.04626 7.48982 7.43517 7.87873L9.55649 10L7.43517 12.1214C7.04626 12.5103 7.04626 13.1467 7.43517 13.5356C7.82408 13.9245 8.46047 13.9245 8.84938 13.5356L10.9707 11.4143Z" fill="#878A99"/>
</svg>
