<svg width="16" height="16" viewBox="0 0 16 16" fill="none" xmlns="http://www.w3.org/2000/svg">
<path d="M14.4765 1.53342C14.2428 1.29929 13.9256 1.16771 13.5947 1.16771C13.264 1.16771 12.9468 1.29925 12.7131 1.53332C12.713 1.53342 12.7129 1.53352 12.7128 1.53362L7.99991 6.23683L3.2867 1.52362C3.28667 1.52359 3.28664 1.52356 3.28661 1.52353C3.05289 1.28933 2.7356 1.15771 2.40473 1.15771C2.07385 1.15771 1.75657 1.28933 1.52285 1.52353C1.03532 2.01117 1.03535 2.79938 1.52295 3.28698L6.23617 8.0002L1.52295 12.7134C1.03532 13.2011 1.03532 13.9893 1.52295 14.477C2.01058 14.9646 2.79887 14.9646 3.2865 14.477L7.99973 9.76375L12.7129 14.477C13.2006 14.9646 13.9889 14.9646 14.4765 14.477C14.9641 13.9893 14.9641 13.2011 14.4765 12.7134L9.76328 8.0002L14.4765 3.28698C14.9541 2.80935 14.9541 2.01105 14.4765 1.53342Z" fill="white" stroke="white" stroke-width="0.5"/>
</svg>
