<svg width="22" height="15" viewBox="0 0 22 15" fill="none" xmlns="http://www.w3.org/2000/svg">
<g clip-path="url(#clip0_340_3294)">
<path d="M1.33394 0.149579C0.976443 -0.0906556 0.457381 -0.0349916 0.175506 0.269696C-0.106369 0.574383 -0.0410568 1.01677 0.316443 1.257L20.6664 14.8508C21.0239 15.091 21.543 15.0353 21.8249 14.7306C22.1068 14.4259 22.0414 13.9836 21.6839 13.7433L18.0677 11.3293C19.4289 10.1398 20.3502 8.8068 20.8143 7.86052C20.9277 7.62907 20.9277 7.37126 20.8143 7.13981C20.3021 6.09391 19.2261 4.57048 17.6174 3.29899C16.0018 2.01579 13.7777 0.937665 11.0002 0.937665C8.65582 0.937665 6.70332 1.70817 5.1805 2.71891L1.33394 0.149579ZM7.66926 4.38005C8.54582 3.69743 9.718 3.28141 11.0002 3.28141C13.733 3.28141 15.9502 5.17106 15.9502 7.50016C15.9502 8.22966 15.7336 8.9152 15.3521 9.51286L14.0252 8.62809C14.3139 8.06266 14.3896 7.4152 14.1902 6.7736C13.8086 5.55778 12.5471 4.7404 11.1446 4.69059C10.9452 4.68474 10.8283 4.86931 10.8902 5.03337C10.9624 5.22087 11.0036 5.42009 11.0036 5.62809C11.0036 5.92692 10.9211 6.20817 10.7768 6.4572L7.67269 4.38298L7.66926 4.38005ZM12.8221 11.423C12.2583 11.6134 11.643 11.7189 11.0002 11.7189C8.26738 11.7189 6.05019 9.82927 6.05019 7.50016C6.05019 7.29802 6.06738 7.10173 6.09832 6.90837L2.85676 4.73161C2.07301 5.60173 1.51269 6.46891 1.18613 7.13981C1.07269 7.37126 1.07269 7.62907 1.18613 7.86052C1.69832 8.90641 2.77426 10.4299 4.38301 11.7013C5.99863 12.9845 8.22269 14.0627 11.0002 14.0627C12.6433 14.0627 14.0905 13.6847 15.3383 13.1105L12.8221 11.423Z" fill="#C7C7C7"/>
</g>
<defs>
<clipPath id="clip0_340_3294">
<rect width="22" height="15" fill="white"/>
</clipPath>
</defs>
</svg>
