<svg width="22" height="15" viewBox="0 0 22 15" fill="none" xmlns="http://www.w3.org/2000/svg">
<path d="M10.9981 0C7.91225 0 5.44128 1.23214 3.64248 2.69866C1.85513 4.15179 0.659752 5.89286 0.0945231 7.08817C-0.0315077 7.35268 -0.0315077 7.64732 0.0945231 7.91183C0.659752 9.10714 1.85513 10.8482 3.64248 12.3013C5.44128 13.7679 7.91225 15 10.9981 15C14.0839 15 16.5549 13.7679 18.3537 12.3013C20.141 10.8449 21.3364 9.10714 21.9055 7.91183C22.0315 7.64732 22.0315 7.35268 21.9055 7.08817C21.3364 5.89286 20.141 4.15179 18.3537 2.69866C16.5549 1.23214 14.0839 0 10.9981 0ZM5.49857 7.5C5.49857 6.22128 6.07798 4.99493 7.10934 4.09073C8.1407 3.18654 9.53953 2.67857 10.9981 2.67857C12.4567 2.67857 13.8555 3.18654 14.8868 4.09073C15.9182 4.99493 16.4976 6.22128 16.4976 7.5C16.4976 8.77872 15.9182 10.0051 14.8868 10.9093C13.8555 11.8135 12.4567 12.3214 10.9981 12.3214C9.53953 12.3214 8.1407 11.8135 7.10934 10.9093C6.07798 10.0051 5.49857 8.77872 5.49857 7.5ZM10.9981 5.35714C10.9981 6.53906 9.90201 7.5 8.55386 7.5C8.2827 7.5 8.023 7.45982 7.77858 7.38951C7.56853 7.32924 7.3241 7.44308 7.33174 7.63728C7.3432 7.8683 7.38139 8.09933 7.45395 8.33036C7.97717 10.0446 9.98984 11.0625 11.9452 10.6038C13.9006 10.1451 15.0616 8.38058 14.5384 6.66629C14.1145 5.27679 12.7129 4.34263 11.1547 4.28571C10.9332 4.27902 10.8033 4.48995 10.8721 4.67745C10.9523 4.89174 10.9981 5.11942 10.9981 5.35714Z" fill="#C7C7C7"/>
</svg>
