<svg width="20" height="20" viewBox="0 0 20 20" fill="none" xmlns="http://www.w3.org/2000/svg">
<circle cx="10" cy="10" r="10" fill="#34A852"/>
<path d="M4.74509 12.86C4.69767 12.9074 4.66583 12.9677 4.65228 13.0327L4.17335 15.4282C4.151 15.5393 4.18623 15.6538 4.26616 15.7344C4.33051 15.7988 4.41722 15.8333 4.50596 15.8333C4.52764 15.8333 4.55 15.8313 4.57235 15.8266L6.967 15.3476C7.03338 15.3341 7.09367 15.3022 7.14041 15.2548L12.5001 9.89479L10.1054 7.5L4.74509 12.86Z" fill="white"/>
<path d="M14.4602 5.53925C13.7413 4.82025 12.5719 4.82025 11.8537 5.53925L10.8333 6.55985L13.4397 9.16667L14.4602 8.14606C14.8082 7.79873 14.9999 7.33563 14.9999 6.84302C14.9999 6.35042 14.8082 5.88731 14.4602 5.53925Z" fill="white"/>
</svg>
