<svg width="231" height="67" viewBox="0 0 231 67" fill="none" xmlns="http://www.w3.org/2000/svg">
<g filter="url(#filter0_d_1_28)">
<path d="M146.205 11H152.256V36.7179H146.205V11Z" fill="#586063"/>
<path d="M108 11H114.051V36.7179H108V11Z" fill="#586063"/>
<path d="M166.369 11H156.795V36.7179H162.396V28.6258H166.368C171.108 28.6258 174.949 24.6795 174.949 19.8129C174.949 14.9448 171.106 11 166.368 11H166.369ZM166.027 23.4656H162.396V16.4837H166.027C167.905 16.4837 169.426 18.0462 169.426 19.9747C169.426 21.9031 167.905 23.4656 166.027 23.4656Z" fill="#586063"/>
<path d="M197.641 36.7179L192.268 27.3585C194.803 25.8149 196.635 23.5787 196.809 19.8129C196.984 16.0472 193.739 11 188.055 11H177.974V36.7179H183.689V28.3055H186.621L191.295 36.7179H197.639H197.641ZM183.69 16.4822H187.808C189.724 16.4822 191.276 18.0447 191.276 19.9731C191.276 21.9015 189.724 23.464 187.808 23.464H183.69V16.4822Z" fill="#586063"/>
<path d="M224.825 17.8764C223.786 15.9001 222.319 14.3198 220.427 13.1306C219.548 12.5882 218.621 12.1487 217.648 11.8136C216.675 11.4785 215.695 11.2463 214.709 11.1169C214.389 11.092 214.062 11.0655 213.729 11.039C213.395 11.014 213.069 11 212.749 11C210.377 11 208.098 11.5813 205.911 12.7425C203.725 13.9052 202.019 15.5838 200.792 17.7782C200.445 18.3985 200.152 19.05 199.913 19.7342C199.672 20.4184 199.486 21.0964 199.353 21.7682C199.272 22.1297 199.22 22.4789 199.193 22.814C199.167 23.1506 199.154 23.4857 199.154 23.8208C199.154 26.0932 199.794 28.2814 201.074 30.387C202.353 32.4927 204.113 34.112 206.353 35.2482C207.179 35.6612 208.039 35.9839 208.931 36.2161C209.823 36.4483 210.724 36.6042 211.63 36.6805C211.816 36.6805 211.995 36.6868 212.17 36.6992C212.343 36.7117 212.522 36.7179 212.71 36.7179C215.321 36.7179 217.814 36.0275 220.187 34.6451C222.56 33.2642 224.305 31.3206 225.425 28.816C225.637 28.3001 225.818 27.7764 225.965 27.2465C226.111 26.7182 226.212 26.182 226.264 25.6396C226.317 25.3825 226.35 25.116 226.365 24.8463C226.378 24.5751 226.385 24.3102 226.385 24.0515C226.385 21.9084 225.864 19.848 224.825 17.8733V17.8764ZM212.72 31.6417C208.412 31.6417 204.92 28.1598 204.92 23.866C204.92 19.5721 208.412 16.0903 212.72 16.0903C217.027 16.0903 220.52 19.5721 220.52 23.866C220.52 28.1598 217.027 31.6417 212.72 31.6417Z" fill="#586063"/>
<path d="M139.705 22.5516V22.5124H130.741V27.5501H137.635C137.325 28.3008 136.905 28.9807 136.363 29.5618C135.945 30.0392 135.441 30.449 134.908 30.8039C133.707 31.6017 132.076 31.7352 130.646 31.7352H130.644C130.63 31.7352 130.618 31.7352 130.604 31.7352C126.358 31.7352 122.918 28.2584 122.918 23.9697C122.918 19.681 126.358 16.2042 130.604 16.2042C133.014 16.2042 135.165 17.3254 136.573 19.0811L141.57 16.7146C140.268 14.8364 138.676 13.4137 136.798 12.4479C134.919 11.4821 132.907 11 130.761 11C130.454 11 130.142 11.0126 129.823 11.0393C129.502 11.066 129.177 11.1036 128.845 11.1555C128.794 11.1555 128.736 11.1617 128.673 11.1743C128.609 11.1869 128.539 11.1932 128.462 11.1932C128.36 11.2199 128.265 11.2387 128.175 11.2513C128.084 11.2638 127.989 11.2701 127.887 11.2701C124.692 11.7852 122.157 13.266 120.278 15.7111C118.4 18.1577 117.462 20.8729 117.462 23.8598C117.462 24.2712 117.487 24.6842 117.538 25.0956C117.589 25.5071 117.653 25.9201 117.729 26.3315C117.806 26.7697 117.908 27.1937 118.036 27.6051C118.163 28.0165 118.304 28.4295 118.458 28.841C119.429 31.3379 121.038 33.2568 123.288 34.5948C125.537 35.9343 127.926 36.641 130.456 36.7179H131.03C133.228 36.6912 135.336 36.1448 137.355 35.0769C139.373 34.0091 140.92 32.4183 141.992 30.3077C142.453 29.2791 142.759 28.2222 142.912 27.1418C143.066 26.0598 143.155 24.9669 143.18 23.8598V22.5532H139.705V22.5516Z" fill="#586063"/>
<path d="M92.3129 11H82V37H92.3129C99.32 37 105 31.3366 105 24.3499V23.6517C105 16.665 99.32 11.0016 92.3129 11.0016V11ZM99.3966 24.6211C99.3966 28.4367 96.2944 31.5282 92.4692 31.5282H87.6051V16.704H92.4692C96.296 16.704 99.3966 19.7971 99.3966 23.6111V24.6194V24.6211Z" fill="#586063"/>
<path d="M83.8684 43.4723C85.2372 43.4723 85.6818 44.0072 85.6818 44.674C85.6818 45.2638 85.2515 45.587 84.6735 45.6623C85.4802 45.7925 86.1535 46.1972 86.1535 47.0349C86.1535 47.7769 85.7708 48.497 84.1384 48.4625C82.8871 48.4421 82.4504 48.4013 82.2837 48.3809C82.2837 46.7055 82.2694 45.1477 82.2694 43.4723H83.8684ZM83.8271 45.5462C84.772 45.5462 85.161 45.2983 85.161 44.674C85.161 44.1186 84.799 43.7672 83.8748 43.7672H82.7204V45.5446H83.8256L83.8271 45.5462ZM82.722 48.1487L83.7636 48.1974C85.2436 48.2319 85.6056 47.7299 85.6056 46.9816C85.6056 46.2333 85.0086 45.8552 84.14 45.8552H82.7204V48.1487H82.722Z" fill="#4285F4" stroke="#4285F4" stroke-width="0.3"/>
<path d="M86.8633 43.4723H89.747V43.7609H87.3016V45.7313H89.115V46.0262H87.3016V48.0781H89.9137V48.3731H86.8633V43.4707V43.4723Z" fill="#4285F4" stroke="#4285F4" stroke-width="0.3"/>
<path d="M93.6739 43.9931C93.0276 43.6982 92.6036 43.6495 92.097 43.6495C91.4651 43.6495 90.922 43.9931 90.922 44.5971C90.922 45.201 91.3174 45.4207 92.0065 45.6058C92.7783 45.8395 93.8279 46.1611 93.8279 47.2059C93.8279 48.2507 92.6195 48.5095 91.951 48.5095C91.1379 48.5095 90.6171 48.2758 90.3741 48.1111V47.6577C90.7219 47.9118 91.3126 48.1801 91.951 48.1801C92.7084 48.1801 93.2991 47.7471 93.2991 47.2059C93.2991 46.8906 93.2372 46.3478 92.0272 46.0325H92.0335C90.9776 45.7376 90.3726 45.3799 90.3726 44.5908C90.3726 43.9523 90.9696 43.3546 92.1034 43.3546C93.0069 43.3546 93.4103 43.5131 93.6739 43.6433V43.9931Z" fill="#4285F4" stroke="#4285F4" stroke-width="0.3"/>
<path d="M98.2121 43.7531H96.3574V48.373H95.8922V43.7531H93.9819V43.4581H98.2137V43.7531H98.2121Z" fill="#4285F4" stroke="#4285F4" stroke-width="0.3"/>
<path d="M104.086 43.5821V44.001C103.662 43.8017 103.232 43.6433 102.752 43.6433C102.641 43.6433 100.854 43.6841 100.772 45.9368C100.8 48.2099 102.565 48.1676 102.752 48.1676C103.314 48.1676 103.767 47.9275 104.135 47.6326V48.1064C103.919 48.2507 103.427 48.519 102.752 48.519C101.105 48.519 100.222 47.3581 100.202 45.9446C100.202 44.2629 101.348 43.3562 102.752 43.3562C103.225 43.3562 103.69 43.466 104.086 43.5821Z" fill="#4285F4" stroke="#4285F4" stroke-width="0.3"/>
<path d="M108.812 43.4645V46.2725C108.812 47.0146 108.832 48.4625 106.908 48.4625C104.983 48.4625 104.948 47.0067 104.948 46.2176V43.4645H105.399V46.2725C105.399 46.7055 105.405 48.1394 106.908 48.1394C108.41 48.1394 108.373 46.7181 108.373 46.2725V43.4645H108.812Z" fill="#4285F4" stroke="#4285F4" stroke-width="0.3"/>
<path d="M112.842 43.9931C112.195 43.6982 111.771 43.6495 111.265 43.6495C110.633 43.6495 110.09 43.9931 110.09 44.5971C110.09 45.201 110.485 45.4207 111.174 45.6058C111.946 45.8395 112.996 46.1611 112.996 47.2059C112.996 48.2507 111.787 48.5095 111.119 48.5095C110.306 48.5095 109.785 48.2758 109.542 48.1111V47.6577C109.89 47.9118 110.48 48.1801 111.119 48.1801C111.876 48.1801 112.467 47.7471 112.467 47.2059C112.467 46.8906 112.405 46.3478 111.195 46.0325H111.201C110.145 45.7376 109.54 45.3799 109.54 44.5908C109.54 43.9523 110.137 43.3546 111.271 43.3546C112.175 43.3546 112.578 43.5131 112.842 43.6433V43.9931Z" fill="#4285F4" stroke="#4285F4" stroke-width="0.3"/>
<path d="M117.38 43.7531H115.525V48.373H115.06V43.7531H113.15V43.4581H117.382V43.7531H117.38Z" fill="#4285F4" stroke="#4285F4" stroke-width="0.3"/>
<path d="M122.725 45.9305C122.725 47.3863 121.996 48.5127 120.119 48.5127C118.242 48.5127 117.52 47.4757 117.499 45.9305C117.499 44.2488 118.458 43.3829 120.119 43.3562C121.933 43.3844 122.725 44.2488 122.725 45.9305ZM120.119 48.2036C120.403 48.2036 122.26 48.1974 122.26 45.9242C122.26 43.6511 120.397 43.659 120.113 43.659C119.779 43.659 118.042 43.6731 118.042 45.9242C118.042 48.1754 119.786 48.2036 120.119 48.2036Z" fill="#4285F4" stroke="#4285F4" stroke-width="0.3"/>
<path d="M125.812 47.7974L123.824 43.7469C123.824 45.2027 123.803 46.7887 123.803 48.3747H123.365V43.4661H124.213L125.894 47.1464C126.02 47.4146 126.166 47.3048 126.234 47.1464C127.679 43.9398 127.805 43.6794 127.889 43.4661H128.675V48.3747H128.23L128.224 43.7406L126.326 47.7974H125.812Z" fill="#4285F4" stroke="#4285F4" stroke-width="0.3"/>
<path d="M129.599 43.4723H132.483V43.7609H130.037V45.7313H131.851V46.0262H130.037V48.0781H132.649V48.3731H129.599V43.4707V43.4723Z" fill="#4285F4" stroke="#4285F4" stroke-width="0.3"/>
<path d="M135.027 43.4645C136.152 43.4645 136.673 43.9649 136.673 44.6379C136.673 45.4066 136.076 45.7643 135.597 45.8192C136.076 45.929 136.214 46.2521 136.36 46.6083L137.077 48.3731H136.618C136.062 46.9863 135.86 46.4859 135.825 46.409C135.686 46.1141 135.506 45.9839 135.193 45.9839H133.796V48.3731H133.358V43.4645H135.025H135.027ZM135.027 45.6482C135.951 45.6482 136.202 45.1054 136.202 44.7007C136.202 44.2677 135.903 43.7672 135.027 43.7672H133.796V45.6482H135.027Z" fill="#4285F4" stroke="#4285F4" stroke-width="0.3"/>
<path d="M139.558 46.2866V46.6364H137.613V46.2866H139.558Z" fill="#4285F4" stroke="#4285F4" stroke-width="0.3"/>
<path d="M141.629 43.4581C143.484 43.4581 144.186 44.9484 144.186 45.9368C144.186 46.9251 143.636 48.3668 141.635 48.3668H140.378V43.4581H141.629ZM140.83 47.8036C140.83 48.064 140.837 48.0718 141.003 48.0718H141.635C142.449 48.0718 143.63 47.5777 143.63 45.9368C143.63 44.2958 142.449 43.7531 141.635 43.7531C141.003 43.7531 140.829 43.7593 140.829 43.808V47.8036H140.83Z" fill="#4285F4" stroke="#4285F4" stroke-width="0.3"/>
<path d="M146.612 43.4645C147.738 43.4645 148.259 43.9649 148.259 44.6379C148.259 45.4066 147.662 45.7643 147.182 45.8192C147.662 45.929 147.8 46.2521 147.946 46.6083L148.662 48.3731H148.203C147.647 46.9863 147.446 46.4859 147.411 46.409C147.271 46.1141 147.092 45.9839 146.779 45.9839H145.381V48.3731H144.943V43.4645H146.61H146.612ZM146.612 45.6482C147.536 45.6482 147.787 45.1054 147.787 44.7007C147.787 44.2677 147.489 43.7672 146.612 43.7672H145.381V45.6482H146.612Z" fill="#4285F4" stroke="#4285F4" stroke-width="0.3"/>
<path d="M149.448 43.4645H149.893V48.3731H149.448V43.4645Z" fill="#4285F4" stroke="#4285F4" stroke-width="0.3"/>
<path d="M152.992 48.3731H152.317L150.504 43.4645H150.99L152.657 48.0578L154.325 43.4645H154.874L152.991 48.3731H152.992Z" fill="#4285F4" stroke="#4285F4" stroke-width="0.3"/>
<path d="M155.585 43.4723H158.469V43.7609H156.024V45.7313H157.837V46.0262H156.024V48.0781H158.636V48.3731H155.585V43.4707V43.4723Z" fill="#4285F4" stroke="#4285F4" stroke-width="0.3"/>
<path d="M159.338 43.4723H159.998L162.756 47.8522V43.4723H163.215V48.3746H162.695L159.782 43.7547V48.3746H159.338V43.4723Z" fill="#4285F4" stroke="#4285F4" stroke-width="0.3"/>
<path d="M169.575 43.7531H167.72V48.373H167.255V43.7531H165.345V43.4581H169.577V43.7531H169.575Z" fill="#4285F4" stroke="#4285F4" stroke-width="0.3"/>
<path d="M171.674 43.4645C172.8 43.4645 173.321 43.9649 173.321 44.6379C173.321 45.4066 172.724 45.7643 172.244 45.8192C172.724 45.929 172.863 46.2521 173.008 46.6083L173.724 48.3731H173.265C172.709 46.9863 172.508 46.4859 172.473 46.409C172.333 46.1141 172.154 45.9839 171.841 45.9839H170.444V48.3731H170.005V43.4645H171.673H171.674ZM171.674 45.6482C172.598 45.6482 172.849 45.1054 172.849 44.7007C172.849 44.2677 172.551 43.7672 171.674 43.7672H170.444V45.6482H171.674Z" fill="#4285F4" stroke="#4285F4" stroke-width="0.3"/>
<path d="M175.83 43.4645H176.546L178.289 48.3731H177.775L177.149 46.5063H175.12L174.348 48.3731H173.869L175.828 43.4645H175.83ZM176.178 43.6904L175.191 46.2161H177.06L176.178 43.6904Z" fill="#4285F4" stroke="#4285F4" stroke-width="0.3"/>
<path d="M178.777 43.4723H179.438L182.196 47.8522V43.4723H182.655V48.3746H182.134L179.222 43.7547V48.3746H178.777V43.4723Z" fill="#4285F4" stroke="#4285F4" stroke-width="0.3"/>
<path d="M186.602 43.9931C185.956 43.6982 185.532 43.6495 185.026 43.6495C184.394 43.6495 183.85 43.9931 183.85 44.5971C183.85 45.201 184.246 45.4207 184.935 45.6058C185.707 45.8395 186.756 46.1611 186.756 47.2059C186.756 48.2507 185.548 48.5095 184.879 48.5095C184.066 48.5095 183.546 48.2758 183.303 48.1111V47.6577C183.65 47.9118 184.241 48.1801 184.879 48.1801C185.637 48.1801 186.228 47.7471 186.228 47.2059C186.228 46.8906 186.166 46.3478 184.956 46.0325H184.962C183.906 45.7376 183.301 45.3799 183.301 44.5908C183.301 43.9523 183.898 43.3546 185.032 43.3546C185.935 43.3546 186.339 43.5131 186.602 43.6433V43.9931Z" fill="#4285F4" stroke="#4285F4" stroke-width="0.3"/>
<path d="M187.479 43.4723H190.69V43.7751H187.923V45.7313H189.64V46.0748H187.923V48.3746H187.479V43.4723Z" fill="#4285F4" stroke="#4285F4" stroke-width="0.3"/>
<path d="M196.228 45.9305C196.228 47.3863 195.5 48.5127 193.623 48.5127C191.746 48.5127 191.023 47.4757 191.003 45.9305C191.003 44.2488 191.962 43.3829 193.623 43.3562C195.436 43.3844 196.228 44.2488 196.228 45.9305ZM193.623 48.2036C193.907 48.2036 195.763 48.1974 195.763 45.9242C195.763 43.6511 193.9 43.659 193.616 43.659C193.283 43.659 191.546 43.6731 191.546 45.9242C191.546 48.1754 193.289 48.2036 193.623 48.2036Z" fill="#4285F4" stroke="#4285F4" stroke-width="0.3"/>
<path d="M198.536 43.4645C199.661 43.4645 200.182 43.9649 200.182 44.6379C200.182 45.4066 199.585 45.7643 199.106 45.8192C199.585 45.929 199.725 46.2521 199.869 46.6083L200.586 48.3731H200.127C199.571 46.9863 199.369 46.4859 199.334 46.409C199.195 46.1141 199.015 45.9839 198.702 45.9839H197.305V48.3731H196.867V43.4645H198.534H198.536ZM198.536 45.6482C199.46 45.6482 199.711 45.1054 199.711 44.7007C199.711 44.2677 199.412 43.7672 198.536 43.7672H197.305V45.6482H198.536Z" fill="#4285F4" stroke="#4285F4" stroke-width="0.3"/>
<path d="M203.742 47.7974L201.754 43.7469C201.754 45.2027 201.734 46.7887 201.734 48.3747H201.295V43.4661H202.143L203.825 47.1464C203.95 47.4146 204.097 47.3048 204.165 47.1464C205.61 43.9398 205.735 43.6794 205.819 43.4661H206.605V48.3747H206.161L206.154 43.7406L204.257 47.7974H203.742Z" fill="#4285F4" stroke="#4285F4" stroke-width="0.3"/>
<path d="M208.913 43.4645H209.629L211.372 48.3731H210.858L210.232 46.5063H208.203L207.431 48.3731H206.952L208.911 43.4645H208.913ZM209.26 43.6904L208.274 46.2161H210.143L209.26 43.6904Z" fill="#4285F4" stroke="#4285F4" stroke-width="0.3"/>
<path d="M214.904 43.7531H213.049V48.373H212.584V43.7531H210.674V43.4581H214.905V43.7531H214.904Z" fill="#4285F4" stroke="#4285F4" stroke-width="0.3"/>
<path d="M215.41 43.4645H215.855V48.3731H215.41V43.4645Z" fill="#4285F4" stroke="#4285F4" stroke-width="0.3"/>
<path d="M221.873 45.9305C221.873 47.3863 221.144 48.5127 219.267 48.5127C217.39 48.5127 216.668 47.4757 216.647 45.9305C216.647 44.2488 217.606 43.3829 219.267 43.3562C221.081 43.3844 221.873 44.2488 221.873 45.9305ZM219.267 48.2036C219.552 48.2036 221.408 48.1974 221.408 45.9242C221.408 43.6511 219.545 43.659 219.261 43.659C218.928 43.659 217.19 43.6731 217.19 45.9242C217.19 48.1754 218.934 48.2036 219.267 48.2036Z" fill="#4285F4" stroke="#4285F4" stroke-width="0.3"/>
<path d="M222.507 43.4723H223.167L225.926 47.8522V43.4723H226.385V48.3746H225.864L222.951 43.7547V48.3746H222.507V43.4723Z" fill="#4285F4" stroke="#4285F4" stroke-width="0.3"/>
<path d="M46.6632 29.4945C46.6632 32.7656 43.9874 35.4163 40.6887 35.4163H35.6998V43.1962H41.0656C48.7776 43.1962 55.028 36.9994 55.028 29.357C55.028 21.713 48.7761 15.5178 41.0656 15.5178H35.6998V23.5728H40.6887C43.9889 23.5728 46.6632 26.225 46.6632 29.4945Z" fill="#4285F4"/>
<path d="M4 43.3525L12.0038 43.3494L11.8871 7.93627H35.6982V0H4V43.3525Z" fill="#EB4335"/>
<path d="M27.7811 51.0512V23.5712H35.6982V15.5162H19.8941V59H35.6982V51.0512H27.7811Z" fill="#34A852"/>
<path d="M70.5641 29.5008C70.5641 13.2078 57.2387 0 40.8007 0H35.6982V7.93627H41.1097C53.1217 7.93627 62.8599 17.5886 62.8599 29.4945C62.8599 34.6989 60.9993 39.4719 57.9025 43.1962H67.1661C69.3342 39.1031 70.5641 34.4441 70.5641 29.5008Z" fill="#FABB05"/>
<path d="M41.1113 51.0512H35.6998V59H40.8022C52.2513 59 62.1898 52.5907 67.1677 43.1962H57.9041C53.9148 47.9927 47.8741 51.0512 41.1129 51.0512H41.1113Z" fill="#4285F4"/>
</g>
<defs>
<filter id="filter0_d_1_28" x="0" y="0" width="230.535" height="67" filterUnits="userSpaceOnUse" color-interpolation-filters="sRGB">
<feFlood flood-opacity="0" result="BackgroundImageFix"/>
<feColorMatrix in="SourceAlpha" type="matrix" values="0 0 0 0 0 0 0 0 0 0 0 0 0 0 0 0 0 0 127 0" result="hardAlpha"/>
<feOffset dy="4"/>
<feGaussianBlur stdDeviation="2"/>
<feComposite in2="hardAlpha" operator="out"/>
<feColorMatrix type="matrix" values="0 0 0 0 0 0 0 0 0 0 0 0 0 0 0 0 0 0 0.25 0"/>
<feBlend mode="normal" in2="BackgroundImageFix" result="effect1_dropShadow_1_28"/>
<feBlend mode="normal" in="SourceGraphic" in2="effect1_dropShadow_1_28" result="shape"/>
</filter>
</defs>
</svg>
