<svg width="20" height="20" viewBox="0 0 20 20" fill="none" xmlns="http://www.w3.org/2000/svg">
<circle cx="10" cy="10" r="10" fill="#FABB05"/>
<path fill-rule="evenodd" clip-rule="evenodd" d="M13.3337 6.66667H14.0003C14.7337 6.66667 15.3337 7.26667 15.3337 8V14.6667C15.3337 15.4 14.7337 16 14.0003 16H6.00033C5.26699 16 4.66699 15.4 4.66699 14.6667V8C4.66699 7.26667 5.26699 6.66667 6.00033 6.66667H6.66699V5.33333C6.66699 3.49333 8.16033 2 10.0003 2C11.8403 2 13.3337 3.49333 13.3337 5.33333V6.66667ZM10.0003 3.33333C8.89366 3.33333 8.00033 4.22667 8.00033 5.33333V6.66667H12.0003V5.33333C12.0003 4.22667 11.107 3.33333 10.0003 3.33333ZM6.66699 14.6667C6.30033 14.6667 6.00033 14.3667 6.00033 14V8.66667C6.00033 8.3 6.30033 8 6.66699 8H13.3337C13.7003 8 14.0003 8.3 14.0003 8.66667V14C14.0003 14.3667 13.7003 14.6667 13.3337 14.6667H6.66699ZM11.3337 11.3333C11.3337 12.0667 10.7337 12.6667 10.0003 12.6667C9.26699 12.6667 8.66699 12.0667 8.66699 11.3333C8.66699 10.6 9.26699 10 10.0003 10C10.7337 10 11.3337 10.6 11.3337 11.3333Z" fill="white"/>
</svg>
