<svg width="164" height="44" viewBox="0 0 164 44" fill="none" xmlns="http://www.w3.org/2000/svg">
<path d="M76.5098 7.76196H79.8363V26.6123H76.5098V7.76196Z" fill="white"/>
<path d="M104.231 7.76196H108.667V26.6123H104.231V7.76196Z" fill="white"/>
<path d="M119.011 7.76196H111.993V26.6123H116.098V20.6811H119.01C122.484 20.6811 125.299 17.7885 125.299 14.2215C125.299 10.6533 122.483 7.76196 119.01 7.76196H119.011ZM118.76 16.8988H116.098V11.7813H118.76C120.136 11.7813 121.251 12.9266 121.251 14.3401C121.251 15.7535 120.136 16.8988 118.76 16.8988Z" fill="white"/>
<path d="M141.932 26.6123L137.994 19.7522C139.852 18.6207 141.194 16.9817 141.322 14.2215C141.45 11.4614 139.072 7.76196 134.905 7.76196H127.517V26.6123H131.705V20.4463H133.855L137.28 26.6123H141.93H141.932ZM131.706 11.7802H134.725C136.129 11.7802 137.266 12.9255 137.266 14.3389C137.266 15.7524 136.129 16.8977 134.725 16.8977H131.706V11.7802Z" fill="white"/>
<path d="M161.857 12.8021C161.096 11.3536 160.02 10.1952 158.634 9.32359C157.989 8.92605 157.31 8.60389 156.597 8.35828C155.883 8.11267 155.165 7.94246 154.442 7.84764C154.208 7.82936 153.968 7.80994 153.724 7.79052C153.479 7.77224 153.24 7.76196 153.006 7.76196C151.267 7.76196 149.597 8.18807 147.994 9.03914C146.391 9.89135 145.141 11.1217 144.242 12.7302C143.987 13.1848 143.772 13.6623 143.597 14.1638C143.421 14.6653 143.285 15.1623 143.187 15.6546C143.128 15.9197 143.089 16.1756 143.07 16.4212C143.051 16.6679 143.041 16.9135 143.041 17.1591C143.041 18.8247 143.51 20.4286 144.448 21.972C145.386 23.5153 146.676 24.7023 148.317 25.535C148.923 25.8378 149.553 26.0742 150.207 26.2445C150.862 26.4147 151.522 26.5289 152.185 26.5849C152.322 26.5849 152.453 26.5895 152.581 26.5986C152.708 26.6077 152.84 26.6123 152.977 26.6123C154.891 26.6123 156.718 26.1062 158.458 25.0929C160.197 24.0808 161.476 22.6563 162.297 20.8205C162.452 20.4423 162.585 20.0585 162.692 19.6701C162.8 19.2828 162.873 18.8898 162.912 18.4923C162.951 18.3038 162.975 18.1085 162.986 17.9108C162.995 17.7121 163 17.5179 163 17.3282C163 15.7575 162.619 14.2472 161.857 12.7998V12.8021ZM152.984 22.8916C149.827 22.8916 147.267 20.3395 147.267 17.1923C147.267 14.045 149.827 11.493 152.984 11.493C156.142 11.493 158.701 14.045 158.701 17.1923C158.701 20.3395 156.142 22.8916 152.984 22.8916Z" fill="white"/>
<path d="M99.4664 16.2289V16.2001H92.8962V19.8926H97.9493C97.7223 20.4428 97.4143 20.9412 97.0174 21.3671C96.7106 21.717 96.341 22.0174 95.9509 22.2775C95.0703 22.8623 93.8749 22.9601 92.8267 22.9601H92.8255C92.8152 22.9601 92.8061 22.9601 92.7959 22.9601C89.6842 22.9601 87.1622 20.4117 87.1622 17.2683C87.1622 14.1248 89.6842 11.5765 92.7959 11.5765C94.5627 11.5765 96.1391 12.3983 97.1714 13.6851L100.834 11.9505C99.8793 10.5739 98.7124 9.53109 97.3356 8.82321C95.9589 8.11533 94.484 7.76196 92.9111 7.76196C92.6864 7.76196 92.4571 7.77117 92.2232 7.79074C91.9883 7.81031 91.7499 7.83793 91.5069 7.87591C91.4693 7.87591 91.4271 7.88052 91.3803 7.88973C91.3335 7.89893 91.2822 7.90354 91.2263 7.90354C91.151 7.92311 91.0815 7.93692 91.0153 7.94613C90.9491 7.95534 90.8796 7.95994 90.8043 7.95994C88.4625 8.33748 86.6044 9.42289 85.2277 11.215C83.8509 13.0083 83.1631 14.9985 83.1631 17.1877C83.1631 17.4893 83.1813 17.792 83.219 18.0936C83.2566 18.3951 83.3034 18.6979 83.3593 18.9994C83.4152 19.3206 83.4905 19.6313 83.584 19.9329C83.6775 20.2345 83.7802 20.5372 83.8931 20.8388C84.6049 22.6689 85.7843 24.0754 87.4337 25.0561C89.0819 26.0379 90.8328 26.5559 92.6875 26.6123H93.1084C94.719 26.5927 96.2646 26.1922 97.744 25.4095C99.2234 24.6268 100.357 23.4608 101.143 21.9138C101.481 21.1599 101.705 20.3853 101.817 19.5934C101.93 18.8003 101.995 17.9992 102.013 17.1877V16.2301H99.4664V16.2289Z" fill="white"/>
<path d="M64.6208 8.87085H57.6602V26.6123H64.6208C69.3503 26.6123 73.184 22.7478 73.184 17.9804V17.5039C73.184 12.7365 69.3503 8.87196 64.6208 8.87196V8.87085ZM69.4019 18.1654C69.4019 20.7691 67.3081 22.8786 64.7263 22.8786H61.4433V12.7631H64.7263C67.3092 12.7631 69.4019 14.8737 69.4019 17.4762V18.1643V18.1654Z" fill="white"/>
<path d="M58.5412 31.8635C59.5445 31.8635 59.8703 32.2556 59.8703 32.7443C59.8703 33.1766 59.5549 33.4135 59.1313 33.4687C59.7225 33.5641 60.216 33.8608 60.216 34.4748C60.216 35.0187 59.9355 35.5465 58.739 35.5212C57.8219 35.5062 57.5018 35.4763 57.3796 35.4614C57.3796 34.2333 57.3691 33.0916 57.3691 31.8635H58.5412ZM58.5109 33.3836C59.2034 33.3836 59.4886 33.2019 59.4886 32.7443C59.4886 32.3373 59.2232 32.0797 58.5458 32.0797H57.6997V33.3825H58.5098L58.5109 33.3836ZM57.7008 35.2912L58.4644 35.3268C59.5491 35.3521 59.8145 34.9842 59.8145 34.4357C59.8145 33.8872 59.3769 33.6101 58.7402 33.6101H57.6997V35.2912H57.7008Z" fill="white" stroke="white" stroke-width="0.3"/>
<path d="M60.7363 31.8637H62.85V32.0753H61.0576V33.5195H62.3867V33.7356H61.0576V35.2396H62.9722V35.4558H60.7363V31.8625V31.8637Z" fill="white" stroke="white" stroke-width="0.3"/>
<path d="M65.7283 32.2453C65.2546 32.0292 64.9439 31.9935 64.5726 31.9935C64.1094 31.9935 63.7113 32.2453 63.7113 32.688C63.7113 33.1307 64.0011 33.2917 64.5062 33.4274C65.0719 33.5987 65.8412 33.8344 65.8412 34.6002C65.8412 35.366 64.9555 35.5557 64.4655 35.5557C63.8696 35.5557 63.4878 35.3844 63.3098 35.2637V34.9314C63.5647 35.1176 63.9976 35.3143 64.4655 35.3143C65.0207 35.3143 65.4536 34.9969 65.4536 34.6002C65.4536 34.3691 65.4083 33.9712 64.5214 33.7401H64.526C63.752 33.524 63.3086 33.2618 63.3086 32.6834C63.3086 32.2154 63.7462 31.7773 64.5772 31.7773C65.2395 31.7773 65.5351 31.8935 65.7283 31.9889V32.2453Z" fill="white" stroke="white" stroke-width="0.3"/>
<path d="M69.0547 32.0694H67.6953V35.4557H67.3543V32.0694H65.9541V31.8533H69.0559V32.0694H69.0547Z" fill="white" stroke="white" stroke-width="0.3"/>
<path d="M73.3596 31.9441V32.2511C73.0488 32.1051 72.7334 31.989 72.3819 31.989C72.3004 31.989 70.9911 32.0189 70.9305 33.67C70.9515 35.3362 72.2446 35.3051 72.3819 35.3051C72.7939 35.3051 73.1256 35.1292 73.3957 34.913V35.2603C73.2374 35.3661 72.8766 35.5627 72.3819 35.5627C71.175 35.5627 70.5278 34.7118 70.5127 33.6758C70.5127 32.4432 71.353 31.7786 72.3819 31.7786C72.7287 31.7786 73.0698 31.8591 73.3596 31.9441Z" fill="white" stroke="white" stroke-width="0.3"/>
<path d="M76.8239 31.8579V33.9161C76.8239 34.46 76.8391 35.5213 75.4284 35.5213C74.0178 35.5213 73.9922 34.4542 73.9922 33.8759V31.8579H74.3227V33.9161C74.3227 34.2335 74.3274 35.2844 75.4284 35.2844C76.5295 35.2844 76.5027 34.2427 76.5027 33.9161V31.8579H76.8239Z" fill="white" stroke="white" stroke-width="0.3"/>
<path d="M79.7772 32.2453C79.3034 32.0292 78.9927 31.9935 78.6214 31.9935C78.1582 31.9935 77.7601 32.2453 77.7601 32.688C77.7601 33.1307 78.0499 33.2917 78.5551 33.4274C79.1207 33.5987 79.89 33.8344 79.89 34.6002C79.89 35.366 79.0043 35.5557 78.5143 35.5557C77.9184 35.5557 77.5367 35.3844 77.3586 35.2637V34.9314C77.6135 35.1176 78.0464 35.3143 78.5143 35.3143C79.0695 35.3143 79.5025 34.9969 79.5025 34.6002C79.5025 34.3691 79.4571 33.9712 78.5702 33.7401H78.5749C77.8009 33.524 77.3574 33.2618 77.3574 32.6834C77.3574 32.2154 77.795 31.7773 78.6261 31.7773C79.2883 31.7773 79.5839 31.8935 79.7772 31.9889V32.2453Z" fill="white" stroke="white" stroke-width="0.3"/>
<path d="M83.1035 32.0694H81.7441V35.4557H81.4031V32.0694H80.0029V31.8533H83.1047V32.0694H83.1035Z" fill="white" stroke="white" stroke-width="0.3"/>
<path d="M87.0218 33.6654C87.0218 34.7325 86.4875 35.5581 85.1118 35.5581C83.7361 35.5581 83.2065 34.798 83.1914 33.6654C83.1914 32.4328 83.8944 31.7981 85.1118 31.7786C86.441 31.7993 87.0218 32.4328 87.0218 33.6654ZM85.1118 35.3316C85.3202 35.3316 86.6808 35.327 86.6808 33.6609C86.6808 31.9947 85.3155 32.0005 85.1072 32.0005C84.8628 32.0005 83.5895 32.0108 83.5895 33.6609C83.5895 35.3109 84.8674 35.3316 85.1118 35.3316Z" fill="white" stroke="white" stroke-width="0.3"/>
<path d="M89.2838 35.0336L87.8266 32.0647C87.8266 33.1318 87.8115 34.2943 87.8115 35.4567H87.4902V31.8589H88.1118L89.3443 34.5564C89.4363 34.753 89.5433 34.6725 89.5934 34.5564C90.6525 32.2061 90.7445 32.0153 90.8062 31.8589H91.3823V35.4567H91.0564L91.0517 32.0601L89.6609 35.0336H89.2838Z" fill="white" stroke="white" stroke-width="0.3"/>
<path d="M92.0605 31.8637H94.1742V32.0753H92.3818V33.5195H93.7109V33.7356H92.3818V35.2396H94.2964V35.4558H92.0605V31.8625V31.8637Z" fill="white" stroke="white" stroke-width="0.3"/>
<path d="M96.0387 31.8579C96.8639 31.8579 97.2456 32.2247 97.2456 32.718C97.2456 33.2814 96.808 33.5436 96.4565 33.5838C96.808 33.6643 96.9093 33.9012 97.0163 34.1622L97.5413 35.4558H97.2049C96.7975 34.4393 96.6497 34.0725 96.6241 34.0162C96.5217 33.8 96.3902 33.7046 96.1609 33.7046H95.1367V35.4558H94.8154V31.8579H96.0375H96.0387ZM96.0387 33.4585C96.7161 33.4585 96.9 33.0606 96.9 32.764C96.9 32.4466 96.6811 32.0798 96.0387 32.0798H95.1367V33.4585H96.0387Z" fill="white" stroke="white" stroke-width="0.3"/>
<path d="M99.3603 33.9265V34.1829H97.9346V33.9265H99.3603Z" fill="white" stroke="white" stroke-width="0.3"/>
<path d="M100.878 31.8533C102.238 31.8533 102.752 32.9456 102.752 33.67C102.752 34.3944 102.349 35.4511 100.883 35.4511H99.9609V31.8533H100.878ZM100.293 35.0383C100.293 35.2292 100.297 35.235 100.42 35.235H100.883C101.479 35.235 102.345 34.8727 102.345 33.67C102.345 32.4673 101.479 32.0694 100.883 32.0694C100.42 32.0694 100.291 32.074 100.291 32.1097V35.0383H100.293Z" fill="white" stroke="white" stroke-width="0.3"/>
<path d="M104.53 31.8579C105.355 31.8579 105.737 32.2247 105.737 32.718C105.737 33.2814 105.299 33.5436 104.948 33.5838C105.299 33.6643 105.4 33.9012 105.508 34.1622L106.032 35.4558H105.696C105.289 34.4393 105.141 34.0725 105.115 34.0162C105.013 33.8 104.881 33.7046 104.652 33.7046H103.628V35.4558H103.307V31.8579H104.529H104.53ZM104.53 33.4585C105.207 33.4585 105.391 33.0606 105.391 32.764C105.391 32.4466 105.172 32.0798 104.53 32.0798H103.628V33.4585H104.53Z" fill="white" stroke="white" stroke-width="0.3"/>
<path d="M106.608 31.8579H106.934V35.4558H106.608V31.8579Z" fill="white" stroke="white" stroke-width="0.3"/>
<path d="M109.207 35.4558H108.712L107.383 31.8579H107.739L108.961 35.2246L110.183 31.8579H110.586L109.205 35.4558H109.207Z" fill="white" stroke="white" stroke-width="0.3"/>
<path d="M111.107 31.8637H113.221V32.0753H111.429V33.5195H112.758V33.7356H111.429V35.2396H113.343V35.4558H111.107V31.8625V31.8637Z" fill="white" stroke="white" stroke-width="0.3"/>
<path d="M113.857 31.8635H114.342L116.363 35.0739V31.8635H116.7V35.4568H116.318L114.183 32.0705V35.4568H113.857V31.8635Z" fill="white" stroke="white" stroke-width="0.3"/>
<path d="M121.361 32.0694H120.002V35.4557H119.661V32.0694H118.261V31.8533H121.363V32.0694H121.361Z" fill="white" stroke="white" stroke-width="0.3"/>
<path d="M122.9 31.8579C123.725 31.8579 124.107 32.2247 124.107 32.718C124.107 33.2814 123.669 33.5436 123.318 33.5838C123.669 33.6643 123.772 33.9012 123.878 34.1622L124.403 35.4558H124.066C123.659 34.4393 123.511 34.0725 123.485 34.0162C123.383 33.8 123.252 33.7046 123.022 33.7046H121.998V35.4558H121.677V31.8579H122.899H122.9ZM122.9 33.4585C123.577 33.4585 123.761 33.0606 123.761 32.764C123.761 32.4466 123.542 32.0798 122.9 32.0798H121.998V33.4585H122.9Z" fill="white" stroke="white" stroke-width="0.3"/>
<path d="M125.945 31.8579H126.47L127.748 35.4558H127.371L126.912 34.0874H125.425L124.859 35.4558H124.508L125.944 31.8579H125.945ZM126.2 32.0235L125.477 33.8747H126.847L126.2 32.0235Z" fill="white" stroke="white" stroke-width="0.3"/>
<path d="M128.105 31.8635H128.59L130.611 35.0739V31.8635H130.948V35.4568H130.566L128.431 32.0705V35.4568H128.105V31.8635Z" fill="white" stroke="white" stroke-width="0.3"/>
<path d="M133.842 32.2453C133.368 32.0292 133.057 31.9935 132.686 31.9935C132.223 31.9935 131.825 32.2453 131.825 32.688C131.825 33.1307 132.114 33.2917 132.62 33.4274C133.185 33.5987 133.955 33.8344 133.955 34.6002C133.955 35.366 133.069 35.5557 132.579 35.5557C131.983 35.5557 131.601 35.3844 131.423 35.2637V34.9314C131.678 35.1176 132.111 35.3143 132.579 35.3143C133.134 35.3143 133.567 34.9969 133.567 34.6002C133.567 34.3691 133.522 33.9712 132.635 33.7401H132.639C131.865 33.524 131.422 33.2618 131.422 32.6834C131.422 32.2154 131.86 31.7773 132.691 31.7773C133.353 31.7773 133.648 31.8935 133.842 31.9889V32.2453Z" fill="white" stroke="white" stroke-width="0.3"/>
<path d="M134.484 31.8635H136.838V32.0854H134.81V33.5193H136.068V33.7711H134.81V35.4568H134.484V31.8635Z" fill="white" stroke="white" stroke-width="0.3"/>
<path d="M140.897 33.6654C140.897 34.7325 140.363 35.5581 138.987 35.5581C137.611 35.5581 137.082 34.798 137.066 33.6654C137.066 32.4328 137.769 31.7981 138.987 31.7786C140.316 31.7993 140.897 32.4328 140.897 33.6654ZM138.987 35.3316C139.195 35.3316 140.556 35.327 140.556 33.6609C140.556 31.9947 139.191 32.0005 138.982 32.0005C138.738 32.0005 137.464 32.0108 137.464 33.6609C137.464 35.3109 138.742 35.3316 138.987 35.3316Z" fill="white" stroke="white" stroke-width="0.3"/>
<path d="M142.588 31.8579C143.414 31.8579 143.795 32.2247 143.795 32.718C143.795 33.2814 143.358 33.5436 143.006 33.5838C143.358 33.6643 143.46 33.9012 143.566 34.1622L144.091 35.4558H143.755C143.347 34.4393 143.2 34.0725 143.174 34.0162C143.071 33.8 142.94 33.7046 142.711 33.7046H141.686V35.4558H141.365V31.8579H142.587H142.588ZM142.588 33.4585C143.266 33.4585 143.45 33.0606 143.45 32.764C143.45 32.4466 143.231 32.0798 142.588 32.0798H141.686V33.4585H142.588Z" fill="white" stroke="white" stroke-width="0.3"/>
<path d="M146.405 35.0336L144.948 32.0647C144.948 33.1318 144.933 34.2943 144.933 35.4567H144.611V31.8589H145.233L146.465 34.5564C146.557 34.753 146.664 34.6725 146.714 34.5564C147.774 32.2061 147.866 32.0153 147.927 31.8589H148.503V35.4567H148.177L148.173 32.0601L146.782 35.0336H146.405Z" fill="white" stroke="white" stroke-width="0.3"/>
<path d="M150.194 31.8579H150.719L151.997 35.4558H151.62L151.161 34.0874H149.674L149.108 35.4558H148.757L150.193 31.8579H150.194ZM150.449 32.0235L149.726 33.8747H151.096L150.449 32.0235Z" fill="white" stroke="white" stroke-width="0.3"/>
<path d="M154.586 32.0694H153.227V35.4557H152.886V32.0694H151.485V31.8533H154.587V32.0694H154.586Z" fill="white" stroke="white" stroke-width="0.3"/>
<path d="M154.957 31.8579H155.283V35.4558H154.957V31.8579Z" fill="white" stroke="white" stroke-width="0.3"/>
<path d="M159.694 33.6654C159.694 34.7325 159.159 35.5581 157.784 35.5581C156.408 35.5581 155.878 34.798 155.863 33.6654C155.863 32.4328 156.566 31.7981 157.784 31.7786C159.113 31.7993 159.694 32.4328 159.694 33.6654ZM157.784 35.3316C157.992 35.3316 159.353 35.327 159.353 33.6609C159.353 31.9947 157.987 32.0005 157.779 32.0005C157.535 32.0005 156.261 32.0108 156.261 33.6609C156.261 35.3109 157.539 35.3316 157.784 35.3316Z" fill="white" stroke="white" stroke-width="0.3"/>
<path d="M160.158 31.8635H160.642L162.664 35.0739V31.8635H163V35.4568H162.619L160.484 32.0705V35.4568H160.158V31.8635Z" fill="white" stroke="white" stroke-width="0.3"/>
<path d="M31.2702 21.6185C31.2702 24.0161 29.3089 25.9589 26.8911 25.9589H23.2344V31.6614H27.1673C32.82 31.6614 37.4013 27.1193 37.4013 21.5177C37.4013 15.9149 32.8188 11.374 27.1673 11.374H23.2344V17.2781H26.8911C29.31 17.2781 31.2702 19.222 31.2702 21.6185Z" fill="#4285F4"/>
<path d="M0 31.7759L5.86648 31.7736L5.78096 5.817H23.2336V0H0V31.7759Z" fill="#EB4335"/>
<path d="M17.4304 37.4187V17.2769H23.2333V11.3728H11.6494V43.2449H23.2333V37.4187H17.4304Z" fill="#34A852"/>
<path d="M48.7889 21.623C48.7889 9.68087 39.0218 0 26.9733 0H23.2334V5.817H27.1999C36.0042 5.817 43.142 12.8918 43.142 21.6184C43.142 25.4331 41.7782 28.9315 39.5084 31.6613H46.2983C47.8874 28.6612 48.7889 25.2463 48.7889 21.623Z" fill="#FABB05"/>
<path d="M27.2008 37.4188H23.2344V43.245H26.9743C35.3661 43.245 42.6506 38.5472 46.2993 31.6614H39.5094C36.5854 35.177 32.1578 37.4188 27.202 37.4188H27.2008Z" fill="#4285F4"/>
</svg>
