<svg width="22" height="23" viewBox="0 0 22 23" fill="none" xmlns="http://www.w3.org/2000/svg">
<path d="M20.5628 4.43594C20.5585 4.42735 20.5563 4.41875 20.552 4.41016C20.537 4.37363 20.5176 4.33926 20.4983 4.30703C20.4919 4.29629 20.4833 4.2834 20.4768 4.27266C20.4661 4.25547 20.4532 4.23828 20.4424 4.22324C20.4381 4.2168 20.4338 4.21035 20.4274 4.20391C20.4188 4.19102 20.4081 4.18027 20.3973 4.16738C20.3866 4.15664 20.3758 4.14375 20.3651 4.13301C20.3157 4.08145 20.2598 4.03418 20.1997 3.99551C20.1846 3.98692 20.1696 3.97617 20.1545 3.96758C20.0944 3.93106 20.0278 3.90313 19.9612 3.88164L19.9483 3.87735C19.9376 3.87305 19.9247 3.8709 19.9118 3.86875C19.8323 3.84727 19.7485 3.83652 19.6669 3.83652H2.29244L2.2731 3.83867H2.26881C1.76607 3.87305 1.37506 4.29414 1.37721 4.79903C1.37721 5.06113 1.48463 5.3125 1.67369 5.49297L10.3706 14.1898C10.7573 14.568 11.3739 14.5701 11.7628 14.1941L18.7086 7.24824V17.3158H3.30435V14.4262C3.30435 13.8955 2.87252 13.4637 2.34185 13.4637C1.81119 13.4637 1.37935 13.8955 1.37935 14.4262V18.2783C1.37935 18.809 1.81119 19.2408 2.34185 19.2408H19.6711C20.2018 19.2408 20.6336 18.809 20.6336 18.2783V4.79903C20.6315 4.67442 20.6079 4.55195 20.5628 4.43594ZM11.0667 12.1639L4.66432 5.76152H17.469L11.0667 12.1639Z" fill="#878A99"/>
<path d="M2.3397 11.5387C2.87036 11.5387 3.3022 11.1068 3.3022 10.5762V9.61367C3.3022 9.08301 2.87036 8.65117 2.3397 8.65117C1.80903 8.65117 1.3772 9.08301 1.3772 9.61367V10.5762C1.3772 11.1068 1.80688 11.5387 2.3397 11.5387Z" fill="#878A99"/>
</svg>
