<svg width="20" height="20" viewBox="0 0 20 20" fill="none" xmlns="http://www.w3.org/2000/svg">
<g clip-path="url(#clip0_26_3210)">
<circle cx="10" cy="10" r="10" fill="#FABB05"/>
<path fill-rule="evenodd" clip-rule="evenodd" d="M11.8597 4.19333L12.333 4.66667H13.9997C14.3663 4.66667 14.6663 4.96667 14.6663 5.33333C14.6663 5.7 14.3663 6 13.9997 6H5.99967C5.63301 6 5.33301 5.7 5.33301 5.33333C5.33301 4.96667 5.63301 4.66667 5.99967 4.66667H7.66634L8.13967 4.19333C8.25967 4.07333 8.43301 4 8.60634 4H11.393C11.5663 4 11.7397 4.07333 11.8597 4.19333ZM5.99967 14.6667C5.99967 15.4 6.59967 16 7.33301 16H12.6663C13.3997 16 13.9997 15.4 13.9997 14.6667V8C13.9997 7.26667 13.3997 6.66667 12.6663 6.66667H7.33301C6.59967 6.66667 5.99967 7.26667 5.99967 8V14.6667ZM7.99967 8H11.9997C12.3663 8 12.6663 8.3 12.6663 8.66667V14C12.6663 14.3667 12.3663 14.6667 11.9997 14.6667H7.99967C7.63301 14.6667 7.33301 14.3667 7.33301 14V8.66667C7.33301 8.3 7.63301 8 7.99967 8Z" fill="white"/>
</g>
<defs>
<clipPath id="clip0_26_3210">
<rect width="20" height="20" fill="white"/>
</clipPath>
</defs>
</svg>
