<svg width="18" height="18" viewBox="0 0 18 18" fill="none" xmlns="http://www.w3.org/2000/svg">
<g clip-path="url(#clip0_22_5240)">
<path d="M17.6459 9.62893L14.7553 11.0742L17.6459 12.5196C18.163 12.778 18.1635 13.5185 17.6459 13.7774L9.34903 17.9258C9.151 18.0247 8.91809 18.0247 8.72006 17.9258L0.423147 13.7774C-0.0938994 13.5188 -0.0944487 12.7783 0.423147 12.5196L3.3138 11.0742L0.423147 9.62893C-0.0938994 9.37034 -0.0944487 8.62999 0.423147 8.37113L3.3138 6.92573L0.423147 5.48047C-0.0938994 5.22188 -0.0944487 4.48154 0.423147 4.22267L8.72006 0.0742149C8.91768 -0.0245247 9.15059 -0.0249367 9.34903 0.0742149L17.6459 4.22267C18.163 4.48126 18.1635 5.22161 17.6459 5.48047L14.7553 6.92573L17.6459 8.37113C18.163 8.62958 18.1635 9.37006 17.6459 9.62893ZM9.03455 16.5108L15.7592 13.1484L9.03455 9.78617L2.30992 13.1484L9.03455 16.5108ZM15.7592 4.8515L9.03455 1.48926L2.30992 4.8515L4.88609 6.13966L8.72006 4.22267C8.91782 4.12393 9.15059 4.12352 9.34903 4.22267L13.183 6.13966L15.7592 4.8515ZM9.03455 5.63772L2.30992 8.99996L4.88609 10.2881L8.72006 8.37113C8.91782 8.27239 9.15059 8.27198 9.34903 8.37113L13.183 10.2881L15.7592 8.99996L9.03455 5.63772Z" fill="white"/>
</g>
<defs>
<clipPath id="clip0_22_5240">
<rect width="18" height="18" fill="white" transform="matrix(1 0 0 -1 0 18)"/>
</clipPath>
</defs>
</svg>
