<svg width="21" height="21" viewBox="0 0 21 21" fill="none" xmlns="http://www.w3.org/2000/svg">
<path fill-rule="evenodd" clip-rule="evenodd" d="M3.89964 3.89944C7.80286 -0.00379252 14.1385 -0.00379252 18.0418 3.89944C21.945 7.80267 21.945 14.1383 18.0418 18.0416C14.1385 21.9448 7.80287 21.9448 3.89964 18.0416C-0.00359392 14.1383 -0.00359425 7.80267 3.89964 3.89944ZM10.9707 12.3847L13.092 14.506C13.4809 14.8949 14.1173 14.8949 14.5062 14.506C14.8951 14.1171 14.8951 13.4807 14.5062 13.0918L12.3849 10.9705L14.5062 8.84918C14.8951 8.46028 14.8951 7.82388 14.5062 7.43497C14.1173 7.04606 13.4809 7.04606 13.092 7.43497L10.9707 9.55629L8.84938 7.43497C8.46047 7.04606 7.82408 7.04606 7.43517 7.43497C7.04626 7.82388 7.04626 8.46028 7.43517 8.84918L9.55649 10.9705L7.43517 13.0918C7.04626 13.4807 7.04626 14.1171 7.43517 14.506C7.82408 14.8949 8.46047 14.8949 8.84938 14.506L10.9707 12.3847Z" fill="white"/>
</svg>
