<svg width="20" height="20" viewBox="0 0 20 20" fill="none" xmlns="http://www.w3.org/2000/svg">
<g clip-path="url(#clip0_79_3211)">
<circle cx="10" cy="10" r="10" fill="#FABB05"/>
<path fill-rule="evenodd" clip-rule="evenodd" d="M15.0018 10.0002C15.0018 10.2268 14.9818 10.4402 14.9552 10.6535L16.3618 11.7535C16.4885 11.8535 16.5218 12.0335 16.4418 12.1802L15.1085 14.4868C15.0285 14.6335 14.8552 14.6935 14.7018 14.6335L13.0418 13.9668C12.6952 14.2268 12.3218 14.4535 11.9152 14.6202L11.6618 16.3868C11.6418 16.5468 11.5018 16.6668 11.3352 16.6668H8.66851C8.50185 16.6668 8.36185 16.5468 8.34185 16.3868L8.08851 14.6202C7.68185 14.4535 7.30851 14.2335 6.96185 13.9668L5.30185 14.6335C5.15518 14.6868 4.97518 14.6335 4.89518 14.4868L3.56185 12.1802C3.48185 12.0335 3.51518 11.8535 3.64185 11.7535L5.04851 10.6535C5.02185 10.4402 5.00185 10.2202 5.00185 10.0002C5.00185 9.78016 5.02185 9.56016 5.04851 9.34683L3.64185 8.24683C3.51518 8.14683 3.47518 7.96683 3.56185 7.82016L4.89518 5.5135C4.97518 5.36683 5.14851 5.30683 5.30185 5.36683L6.96185 6.0335C7.30851 5.7735 7.68185 5.54683 8.08851 5.38016L8.34185 3.6135C8.36185 3.4535 8.50185 3.3335 8.66851 3.3335H11.3352C11.5018 3.3335 11.6418 3.4535 11.6618 3.6135L11.9152 5.38016C12.3218 5.54683 12.6952 5.76683 13.0418 6.0335L14.7018 5.36683C14.8485 5.3135 15.0285 5.36683 15.1085 5.5135L16.4418 7.82016C16.5218 7.96683 16.4885 8.14683 16.3618 8.24683L14.9552 9.34683C14.9818 9.56016 15.0018 9.7735 15.0018 10.0002ZM7.66851 10.0002C7.66851 11.2868 8.71518 12.3335 10.0018 12.3335C11.2885 12.3335 12.3352 11.2868 12.3352 10.0002C12.3352 8.7135 11.2885 7.66683 10.0018 7.66683C8.71518 7.66683 7.66851 8.7135 7.66851 10.0002Z" fill="white"/>
</g>
<defs>
<clipPath id="clip0_79_3211">
<rect width="20" height="20" fill="white"/>
</clipPath>
</defs>
</svg>
