<svg width="16" height="22" viewBox="0 0 16 22" fill="none" xmlns="http://www.w3.org/2000/svg">
<path fill-rule="evenodd" clip-rule="evenodd" d="M4.55129 5V8.74C3.34129 7.93 2.55129 6.56 2.55129 5C2.55129 2.51 4.56129 0.5 7.05129 0.5C9.54129 0.5 11.5513 2.51 11.5513 5C11.5513 6.56 10.7613 7.93 9.55129 8.74V5C9.55129 3.62 8.43129 2.5 7.05129 2.5C5.67129 2.5 4.55129 3.62 4.55129 5ZM9.16129 11C9.47129 11 9.77129 11.07 10.0513 11.21L14.1313 13.24C14.9013 13.62 15.3413 14.46 15.2213 15.31L14.5913 19.78C14.4513 20.77 13.6113 21.5 12.6113 21.5H6.51129C5.98129 21.5 5.47129 21.29 5.09129 20.92L1.08129 16.91C0.651289 16.47 0.651289 15.77 1.08129 15.33C1.35129 15.06 1.74129 14.94 2.11129 15.02L5.55129 15.74V5C5.55129 4.17 6.22129 3.5 7.05129 3.5C7.88129 3.5 8.55129 4.17 8.55129 5V11H9.16129Z" fill="white"/>
</svg>
