<svg width="41" height="41" viewBox="0 0 41 41" fill="none" xmlns="http://www.w3.org/2000/svg">
<g clip-path="url(#clip0_31_3220)">
<g clip-path="url(#clip1_31_3220)">
<path fill-rule="evenodd" clip-rule="evenodd" d="M25.1719 11.0005L26.139 11.0496C26.5914 11.0719 26.9422 11.4517 26.9184 11.8918L26.8722 12.7656C27.3052 12.9154 27.7095 13.1208 28.0783 13.3709L28.7787 12.7556C29.1151 12.4599 29.6376 12.4858 29.9412 12.8142L30.5895 13.515C30.8931 13.8431 30.8657 14.3529 30.5297 14.6485L29.7782 15.3103C29.9623 15.6804 30.1007 16.0764 30.187 16.4898L31.2188 16.5419C31.6712 16.5643 32.022 16.9431 31.9987 17.3846L31.9488 18.3272C31.9259 18.7682 31.5364 19.1103 31.0845 19.0875L30.0423 19.035C29.9127 19.4283 29.7335 19.8043 29.5086 20.1545L30.1991 20.9012C30.5023 21.2288 30.4754 21.7391 30.1389 22.0347L29.4201 22.6672C29.0837 22.9628 28.5608 22.9357 28.2576 22.6085L27.6048 21.9033C27.2217 22.1074 26.8093 22.2651 26.3767 22.3689V19.9087C27.2756 19.5268 27.9247 18.6745 27.9786 17.6549C28.0545 16.2187 26.922 14.9945 25.449 14.9205C24.5623 14.8763 23.7541 15.2586 23.2348 15.8837H20.2624C20.416 15.4409 20.6307 15.0274 20.8967 14.6512L20.4241 14.1405C20.1209 13.8129 20.1478 13.3026 20.4838 13.007L21.2035 12.3745C21.539 12.0793 22.0624 12.1056 22.3656 12.4332L22.8768 12.9851C23.3099 12.7775 23.7766 12.6281 24.2654 12.5462L24.3071 11.7613C24.3309 11.3203 24.7195 10.9782 25.1719 11.0005ZM17.4556 22.2581H16.2917C16.2544 22.2581 16.2257 22.287 16.2257 22.3234V24.7148C16.2257 24.7511 16.2544 24.78 16.2917 24.78H17.4543C17.4916 24.78 17.5208 24.7511 17.5208 24.7148V22.3234C17.5208 22.2875 17.4929 22.2581 17.4556 22.2581ZM9.89439 17.1818H14.0816V16.0536C14.0816 15.7137 14.3664 15.436 14.7145 15.436H19.0329C19.381 15.436 19.6658 15.7137 19.6658 16.0536V17.1818H23.853C24.3426 17.1818 24.7474 17.5769 24.7474 18.0539V20.1606C23.7362 20.8364 22.6931 21.4124 21.6177 21.8823C20.5364 22.3545 19.4214 22.7206 18.2678 22.9733V22.1311C18.2678 21.7422 17.9466 21.4286 17.5477 21.4286H16.1983C15.7994 21.4286 15.4782 21.7422 15.4782 22.1311V22.9541C14.3556 22.7031 13.2676 22.3435 12.2128 21.8823C11.1082 21.4001 10.0377 20.804 9 20.1041V18.0539C9 17.576 9.40475 17.1818 9.89439 17.1818ZM24.7474 21.4102V27.1276C24.7474 27.2421 24.7241 27.3554 24.6789 27.4609C24.6336 27.5665 24.5673 27.6622 24.4837 27.7426C24.3206 27.9007 24.0973 27.9997 23.853 27.9997H9.89439C9.64732 27.9997 9.42451 27.9007 9.26414 27.7426C9.10107 27.5836 9 27.3663 9 27.1276V21.3576C9.88271 21.9095 10.7915 22.3921 11.7259 22.8003C12.932 23.3281 14.1826 23.7315 15.4791 24.0013V24.907C15.4791 25.296 15.8007 25.6096 16.1996 25.6096H17.5491C17.9475 25.6096 18.2692 25.296 18.2692 24.907V24.0179C19.5903 23.7481 20.8751 23.3382 22.1064 22.7995C23.0111 22.4044 23.8912 21.9397 24.7474 21.4102V21.4102ZM15.1988 16.277C15.1561 16.277 15.1184 16.3142 15.1184 16.3558V17.1578H18.6281V16.3558C18.6281 16.3138 18.5899 16.277 18.5477 16.277H15.1988Z" fill="#4285F4"/>
</g>
<circle cx="20.5" cy="20.5" r="19.5" stroke="#4285F4" stroke-width="2"/>
</g>
<defs>
<clipPath id="clip0_31_3220">
<rect width="41" height="41" fill="white"/>
</clipPath>
<clipPath id="clip1_31_3220">
<rect width="23" height="17" fill="white" transform="translate(9 11)"/>
</clipPath>
</defs>
</svg>
