<svg width="20" height="20" viewBox="0 0 20 20" fill="none" xmlns="http://www.w3.org/2000/svg">
<circle cx="10" cy="10" r="10" fill="#4285F4"/>
<path fill-rule="evenodd" clip-rule="evenodd" d="M14.0003 6.66667H13.3337V5.33333C13.3337 3.49333 11.8403 2 10.0003 2C8.48033 2 7.15366 3.02667 6.77366 4.5C6.68033 4.86 6.89366 5.22 7.25366 5.31333C7.60699 5.40667 7.97366 5.19333 8.06699 4.83333C8.29366 3.95333 9.08699 3.33333 10.0003 3.33333C11.1003 3.33333 12.0003 4.23333 12.0003 5.33333V6.66667H6.00033C5.26699 6.66667 4.66699 7.26667 4.66699 8V14.6667C4.66699 15.4 5.26699 16 6.00033 16H14.0003C14.7337 16 15.3337 15.4 15.3337 14.6667V8C15.3337 7.26667 14.7337 6.66667 14.0003 6.66667ZM10.0003 10C9.26699 10 8.66699 10.6 8.66699 11.3333C8.66699 12.0667 9.26699 12.6667 10.0003 12.6667C10.7337 12.6667 11.3337 12.0667 11.3337 11.3333C11.3337 10.6 10.7337 10 10.0003 10ZM13.3337 14.6667C13.7003 14.6667 14.0003 14.3667 14.0003 14V8.66667C14.0003 8.3 13.7003 8 13.3337 8H6.66699C6.30033 8 6.00033 8.3 6.00033 8.66667V14C6.00033 14.3667 6.30033 14.6667 6.66699 14.6667H13.3337Z" fill="white"/>
</svg>
