<svg width="20" height="20" viewBox="0 0 20 20" fill="none" xmlns="http://www.w3.org/2000/svg">
    <path fill-rule="evenodd" clip-rule="evenodd" d="M10.0003 5.00016H16.667C17.5837 5.00016 18.3337 5.75016 18.3337 6.66683V15.0002C18.3337 15.9168 17.5837 16.6668 16.667 16.6668H3.33366C2.41699 16.6668 1.66699 15.9168 1.66699 15.0002L1.67533 5.00016C1.67533 4.0835 2.41699 3.3335 3.33366 3.3335H7.64199C8.08366 3.3335 8.50866 3.5085 8.82533 3.82516L10.0003 5.00016ZM4.16699 15.0002H15.8337C16.292 15.0002 16.667 14.6252 16.667 14.1668V7.50016C16.667 7.04183 16.292 6.66683 15.8337 6.66683H4.16699C3.70866 6.66683 3.33366 7.04183 3.33366 7.50016V14.1668C3.33366 14.6252 3.70866 15.0002 4.16699 15.0002Z" fill="#405189"/>
</svg>
