<svg width="16" height="17" viewBox="0 0 16 17" fill="none" xmlns="http://www.w3.org/2000/svg">
    <path d="M10.678 0.303092C10.5424 0.391228 10.3797 0.730211 10.2847 1.07597C10.1627 1.55055 10.1492 1.95055 10.2305 2.45902L10.3051 2.92682L10.0746 3.18445C9.95254 3.32682 9.25424 4.03869 8.52881 4.76411L7.20678 6.07936L6.78644 5.90987C6.55593 5.81496 6.16949 5.68614 5.9322 5.61835C5.53898 5.51665 5.41017 5.50309 4.69153 5.50309C3.95254 5.50309 3.86441 5.50987 3.49153 5.62513C2.99661 5.78106 2.56949 5.99123 2.19661 6.26919C1.83051 6.54038 1.72881 6.67597 1.72881 6.87258C1.72881 7.02174 1.82373 7.13021 3.26102 8.57428C4.10169 9.42174 4.78644 10.1336 4.77288 10.1539C4.7661 10.1743 3.68814 11.4421 2.37966 12.9607C0.149152 15.5573 0 15.7404 0 15.9031C0 16.1878 0.257627 16.3777 0.515254 16.2828C0.576271 16.2624 1.86441 15.1709 3.37627 13.8624L6.12203 11.476L7.6339 12.9811C8.46102 13.8082 9.18644 14.5065 9.24746 14.5404C9.41017 14.6217 9.6 14.5539 9.78983 14.3438C10.1831 13.9099 10.5085 13.32 10.6712 12.6963C10.7525 12.398 10.7729 12.2014 10.7729 11.6048C10.7797 10.9472 10.7661 10.8319 10.6441 10.3709C10.5695 10.0929 10.4407 9.69292 10.3458 9.47597L10.1763 9.08275L11.7559 7.50309L13.3356 5.93021L13.6068 5.99123C13.9729 6.07936 14.7661 6.07936 15.1119 5.99123C15.7424 5.82174 16 5.64546 16 5.36072C16 5.17089 15.9797 5.15733 13.5254 2.70309C11.3492 0.526821 11.0373 0.228516 10.9153 0.228516C10.8407 0.228516 10.7322 0.262414 10.678 0.303092Z" fill="#405189"/>
</svg>
