<svg width="14" height="16" viewBox="0 0 14 16" fill="none" xmlns="http://www.w3.org/2000/svg">
    <path fill-rule="evenodd" clip-rule="evenodd" d="M9.79 0.741667L10.5 1.33333H13C13.55 1.33333 14 1.70833 14 2.16667C14 2.625 13.55 3 13 3H1C0.45 3 0 2.625 0 2.16667C0 1.70833 0.45 1.33333 1 1.33333H3.5L4.21 0.741667C4.39 0.591667 4.65 0.5 4.91 0.5H9.09C9.35 0.5 9.61 0.591667 9.79 0.741667ZM1 13.8333C1 14.75 1.9 15.5 3 15.5H11C12.1 15.5 13 14.75 13 13.8333V5.5C13 4.58333 12.1 3.83333 11 3.83333H3C1.9 3.83333 1 4.58333 1 5.5V13.8333ZM4 5.5H10C10.55 5.5 11 5.875 11 6.33333V13C11 13.4583 10.55 13.8333 10 13.8333H4C3.45 13.8333 3 13.4583 3 13V6.33333C3 5.875 3.45 5.5 4 5.5Z" fill="#EB4335"/>
</svg>
