<svg width="34" height="34" viewBox="0 0 34 34" fill="none" xmlns="http://www.w3.org/2000/svg">
    <path fill-rule="evenodd" clip-rule="evenodd" d="M28.333 2.83337C29.8913 2.83337 31.1663 4.10837 31.1663 5.66671V31.1667L25.4997 25.5H5.66634C4.10801 25.5 2.83301 24.225 2.83301 22.6667V5.66671C2.83301 4.10837 4.10801 2.83337 5.66634 2.83337H28.333ZM18.4163 15.5834H22.6663C23.4455 15.5834 24.083 14.9459 24.083 14.1667C24.083 13.3875 23.4455 12.75 22.6663 12.75H18.4163V8.50004C18.4163 7.72087 17.7788 7.08337 16.9997 7.08337C16.2205 7.08337 15.583 7.72087 15.583 8.50004V12.75H11.333C10.5538 12.75 9.91634 13.3875 9.91634 14.1667C9.91634 14.9459 10.5538 15.5834 11.333 15.5834H15.583V19.8334C15.583 20.6125 16.2205 21.25 16.9997 21.25C17.7788 21.25 18.4163 20.6125 18.4163 19.8334V15.5834Z" fill="url(#paint0_linear_22_9504)"/>
    <defs>
        <linearGradient id="paint0_linear_22_9504" x1="2.83301" y1="17" x2="31.1663" y2="17" gradientUnits="userSpaceOnUse">
            <stop stop-color="#8F61FF"/>
            <stop offset="0.529" stop-color="#4756FF"/>
            <stop offset="1" stop-color="#03C6FF"/>
        </linearGradient>
    </defs>
</svg>
