<svg width="27" height="27" viewBox="0 0 27 27" fill="none" xmlns="http://www.w3.org/2000/svg">
    <path fill-rule="evenodd" clip-rule="evenodd" d="M22.5 2.25C23.7375 2.25 24.75 3.2625 24.75 4.5V24.75L20.25 20.25H4.5C3.2625 20.25 2.25 19.2375 2.25 18V4.5C2.25 3.2625 3.2625 2.25 4.5 2.25H22.5ZM14.625 12.375H18C18.6187 12.375 19.125 11.8687 19.125 11.25C19.125 10.6313 18.6187 10.125 18 10.125H14.625V6.75C14.625 6.13125 14.1187 5.625 13.5 5.625C12.8813 5.625 12.375 6.13125 12.375 6.75V10.125H9C8.38125 10.125 7.875 10.6313 7.875 11.25C7.875 11.8687 8.38125 12.375 9 12.375H12.375V15.75C12.375 16.3687 12.8813 16.875 13.5 16.875C14.1187 16.875 14.625 16.3687 14.625 15.75V12.375Z" fill="white"/>
</svg>
