<svg width="19" height="19" viewBox="0 0 19 19" fill="none" xmlns="http://www.w3.org/2000/svg">
    <path fill-rule="evenodd" clip-rule="evenodd" d="M12.2707 0.791656H3.56234C2.6915 0.791656 1.979 1.50416 1.979 2.37499V12.6667C1.979 13.1021 2.33525 13.4583 2.77067 13.4583C3.20609 13.4583 3.56234 13.1021 3.56234 12.6667V3.16666C3.56234 2.73124 3.91859 2.37499 4.354 2.37499H12.2707C12.7061 2.37499 13.0623 2.01874 13.0623 1.58332C13.0623 1.14791 12.7061 0.791656 12.2707 0.791656ZM12.7378 4.42541L16.5615 8.24916C16.8544 8.54207 17.0207 8.94582 17.0207 9.36541V16.625C17.0207 17.4958 16.3082 18.2083 15.4373 18.2083H6.72109C5.85025 18.2083 5.14567 17.4958 5.14567 16.625L5.15359 5.54166C5.15359 4.67082 5.85817 3.95832 6.729 3.95832H11.6136C12.0332 3.95832 12.4369 4.12457 12.7378 4.42541ZM15.8332 9.49999H12.2707C11.8353 9.49999 11.479 9.14374 11.479 8.70832V5.14582L15.8332 9.49999Z" fill="#D3F1ED"/>
</svg>
