<svg width="27" height="27" viewBox="0 0 27 27" fill="none" xmlns="http://www.w3.org/2000/svg">
    <rect x="0.5" y="0.5" width="26" height="26" rx="13" stroke="#405189"/>
    <path fill-rule="evenodd" clip-rule="evenodd" d="M13.5036 5.74365H13.5107C13.9002 5.74365 14.2119 6.05532 14.2119 6.4449V7.13199C14.2119 7.52157 13.9002 7.83324 13.5036 7.82615H13.4965C13.1069 7.82615 12.7952 7.51449 12.7952 7.1249V6.4449C12.7952 6.05532 13.1069 5.74365 13.5036 5.74365ZM9.289 8.28657L9.01275 8.01032C8.7365 7.73407 8.29025 7.74115 8.02108 8.01032L8.014 8.0174C7.73775 8.29365 7.73775 8.7399 8.014 9.00907L8.29025 9.28532C8.5665 9.56157 9.00566 9.56157 9.28191 9.28532L9.289 9.27824C9.56525 9.00907 9.56525 8.55574 9.289 8.28657ZM7.13566 12.7916H6.41316C6.02358 12.7916 5.71191 13.1032 5.71191 13.4928V13.4999C5.71191 13.8895 6.02358 14.2012 6.41316 14.2012H7.12858C7.52525 14.2082 7.83691 13.8966 7.83691 13.507V13.4999C7.83691 13.1032 7.52525 12.7916 7.13566 12.7916ZM18.9932 8.0174C18.7169 7.74115 18.2707 7.74115 17.9944 8.01032L17.7182 8.28657C17.4419 8.56282 17.4419 9.00907 17.7182 9.27824L17.7252 9.28532C18.0015 9.56157 18.4477 9.56157 18.7169 9.28532L18.9932 9.00907C19.2694 8.73282 19.2694 8.29365 18.9932 8.0174ZM17.9873 18.9895L17.7111 18.7132C17.4348 18.437 17.4348 17.9978 17.7182 17.7145C17.9873 17.4453 18.4336 17.4382 18.7098 17.7145L18.9861 17.9907C19.2623 18.267 19.2623 18.7132 18.9861 18.9895C18.7098 19.2657 18.2636 19.2657 17.9873 18.9895ZM19.1702 13.4928V13.4999C19.1702 13.8895 19.4819 14.2012 19.8715 14.2012H20.5869C20.9765 14.2012 21.2882 13.8895 21.2882 13.4999V13.4928C21.2882 13.1032 20.9765 12.7916 20.5869 12.7916H19.8715C19.4819 12.7916 19.1702 13.1032 19.1702 13.4928ZM9.25358 13.4999C9.25358 11.1553 11.159 9.2499 13.5036 9.2499C15.8482 9.2499 17.7536 11.1553 17.7536 13.4999C17.7536 15.8445 15.8482 17.7499 13.5036 17.7499C11.159 17.7499 9.25358 15.8445 9.25358 13.4999ZM13.4965 21.2562H13.5036C13.8932 21.2562 14.2048 20.9445 14.2048 20.5549V19.8749C14.2048 19.4853 13.8932 19.1737 13.5036 19.1737H13.4965C13.1069 19.1737 12.7952 19.4853 12.7952 19.8749V20.5549C12.7952 20.9445 13.1069 21.2562 13.4965 21.2562ZM9.01275 18.9824C8.7365 19.2587 8.29025 19.2587 8.014 18.9824C7.73775 18.7062 7.73775 18.267 8.00691 17.9837L8.28316 17.7074C8.4155 17.5748 8.59517 17.5002 8.78254 17.5002C8.96991 17.5002 9.14958 17.5748 9.28191 17.7074L9.289 17.7145C9.55816 17.9837 9.56525 18.4299 9.289 18.7062L9.01275 18.9824Z" fill="#6E8BD7"/>
</svg>
