<svg width="22" height="22" viewBox="0 0 22 22" fill="none" xmlns="http://www.w3.org/2000/svg">
    <g clip-path="url(#clip0_22_9911)">
        <path d="M16.6833 22H3.48333C1.55833 22 0 20.4416 0 18.5166V5.31665C0 3.39165 1.55833 1.83331 3.48333 1.83331H10.0833C10.6333 1.83331 11 2.19998 11 2.74998C11 3.29998 10.6333 3.66665 10.0833 3.66665H3.48333C2.56667 3.66665 1.83333 4.39998 1.83333 5.31665V18.425C1.83333 19.3416 2.56667 20.075 3.48333 20.075H16.5917C17.5083 20.075 18.2417 19.3416 18.2417 18.425V11.9166C18.2417 11.3666 18.6083 11 19.1583 11C19.7083 11 20.075 11.3666 20.075 11.9166V18.5166C20.1667 20.4416 18.6083 22 16.6833 22Z" fill="#405189"/>
        <path d="M5.49967 17.4167C5.22467 17.4167 5.04134 17.325 4.85801 17.1417C4.67467 16.9583 4.58301 16.5917 4.58301 16.3167L5.49967 11.7333C5.49967 11.55 5.59134 11.3667 5.77467 11.275L16.7747 0.275C17.1413 -0.0916667 17.6913 -0.0916667 18.058 0.275L21.7247 3.94167C22.0913 4.30833 22.0913 4.85833 21.7247 5.225L10.7247 16.225C10.633 16.3167 10.4497 16.4083 10.2663 16.5L5.68301 17.4167C5.59134 17.4167 5.59134 17.4167 5.49967 17.4167ZM7.24134 12.375L6.69134 15.3083L9.62467 14.7583L19.7997 4.58333L17.4163 2.2L7.24134 12.375Z" fill="#405189"/>
    </g>
    <defs>
        <clipPath id="clip0_22_9911">
            <rect width="22" height="22" fill="white"/>
        </clipPath>
    </defs>
</svg>
