<svg width="22" height="22" viewBox="0 0 22 22" fill="none" xmlns="http://www.w3.org/2000/svg">
    <g clip-path="url(#clip0_22_10054)">
        <path d="M16.6833 22H3.48333C1.55833 22 0 20.4416 0 18.5166V5.31665C0 3.39165 1.55833 1.83331 3.48333 1.83331H10.0833C10.6333 1.83331 11 2.19998 11 2.74998C11 3.29998 10.6333 3.66665 10.0833 3.66665H3.48333C2.56667 3.66665 1.83333 4.39998 1.83333 5.31665V18.425C1.83333 19.3416 2.56667 20.075 3.48333 20.075H16.5917C17.5083 20.075 18.2417 19.3416 18.2417 18.425V11.9166C18.2417 11.3666 18.6083 11 19.1583 11C19.7083 11 20.075 11.3666 20.075 11.9166V18.5166C20.1667 20.4416 18.6083 22 16.6833 22Z" fill="#4285F4"/>
        <path d="M5.50016 17.4167C5.22516 17.4167 5.04183 17.325 4.8585 17.1417C4.67516 16.9583 4.5835 16.5917 4.5835 16.3167L5.50016 11.7333C5.50016 11.55 5.59183 11.3667 5.77516 11.275L16.7752 0.275C17.1418 -0.0916667 17.6918 -0.0916667 18.0585 0.275L21.7252 3.94167C22.0918 4.30833 22.0918 4.85833 21.7252 5.225L10.7252 16.225C10.6335 16.3167 10.4502 16.4083 10.2668 16.5L5.6835 17.4167C5.59183 17.4167 5.59183 17.4167 5.50016 17.4167ZM7.24183 12.375L6.69183 15.3083L9.62516 14.7583L19.8002 4.58333L17.4168 2.2L7.24183 12.375Z" fill="#4285F4"/>
    </g>
    <defs>
        <clipPath id="clip0_22_10054">
            <rect width="22" height="22" fill="white"/>
        </clipPath>
    </defs>
</svg>
