<svg width="34" height="34" viewBox="0 0 34 34" fill="none" xmlns="http://www.w3.org/2000/svg">
    <path d="M22.6663 9.55909V24.5474C22.6663 27.5083 20.4988 30.1433 17.5522 30.4266C14.1663 30.7524 11.333 28.1033 11.333 24.7883V7.27825C11.333 5.42242 12.6647 3.73659 14.5063 3.55242C16.6313 3.33992 18.4163 4.99742 18.4163 7.07992V21.9549C18.4163 22.7341 17.7788 23.3716 16.9997 23.3716C16.2205 23.3716 15.583 22.7341 15.583 21.9549V9.55909C15.583 8.97825 15.1013 8.49659 14.5205 8.49659C13.9397 8.49659 13.458 8.97825 13.458 9.55909V21.7566C13.458 23.6124 14.7897 25.2983 16.6313 25.4824C18.7563 25.6949 20.5413 24.0374 20.5413 21.9549V7.32075C20.5413 4.35992 18.3738 1.72492 15.4272 1.44159C12.0555 1.11575 9.20801 3.76492 9.20801 7.07992V24.4624C9.20801 28.5283 12.183 32.1691 16.2347 32.5516C20.8955 32.9766 24.7913 29.3499 24.7913 24.7883V9.55909C24.7913 8.97825 24.3097 8.49659 23.7288 8.49659C23.148 8.49659 22.6663 8.97825 22.6663 9.55909Z" fill="#878A99" stroke="#878A99"/>
</svg>
