<svg width="17" height="17" viewBox="0 0 17 17" fill="none" xmlns="http://www.w3.org/2000/svg">
<path d="M12.5497 3.58786C13.2012 3.58786 13.7289 3.06363 13.7289 2.41097V1.17922C13.7289 0.525978 13.2018 0 12.5497 0C11.8977 0 11.3711 0.525394 11.3711 1.17922V2.41156C11.3717 3.06363 11.8982 3.58786 12.5497 3.58786Z" fill="#000"/>
<path d="M16.7391 2.03954H14.3654V2.63907C14.3654 3.62856 13.5616 4.43475 12.5703 4.43475C11.5779 4.43475 10.7758 3.62856 10.7758 2.63907V2.03954H5.98599V2.63907C5.98599 3.62856 5.18097 4.43475 4.19031 4.43475C3.19965 4.43475 2.39521 3.62915 2.39521 2.63907V2.03954L0 2.00977V16.9998H1.1979H15.561L16.7572 16.9963L16.7391 2.03954ZM15.5598 15.806H1.1979V6.22985H15.561V15.806H15.5598Z" fill="#000"/>
<path d="M4.1717 3.58786C4.82319 3.58786 5.3515 3.06363 5.3515 2.41097V1.17922C5.3515 0.525394 4.82319 0 4.1717 0C3.52021 0 2.99365 0.525394 2.99365 1.17922V2.41156C2.99365 3.06363 3.51963 3.58786 4.1717 3.58786Z" fill="#000"/>
<path d="M7.87542 7.51465H5.98926V9.17956H7.87542V7.51465Z" fill="#000"/>
<path d="M10.927 7.51465H9.03906V9.17956H10.927V7.51465Z" fill="#000"/>
<path d="M13.7538 7.51465H11.8677V9.17956H13.7538V7.51465Z" fill="#000"/>
<path d="M7.87542 10.2798H5.98926V11.9435H7.87542V10.2798Z" fill="#000"/>
<path d="M10.927 10.2798H9.03906V11.9435H10.927V10.2798Z" fill="#000"/>
<path d="M13.7538 10.2798H11.8677V11.9435H13.7538V10.2798Z" fill="#000"/>
<path d="M7.87542 13.0991H5.98926V14.7629H7.87542V13.0991Z" fill="#000"/>
<path d="M4.87865 10.2798H2.99365V11.9435H4.87865V10.2798Z" fill="#000"/>
<path d="M4.87865 13.0991H2.99365V14.7629H4.87865V13.0991Z" fill="#000"/>
<path d="M10.927 13.0991H9.03906V14.7629H10.927V13.0991Z" fill="#000"/>
<path d="M13.7538 13.0991H11.8677V14.7629H13.7538V13.0991Z" fill="#000"/>
</svg>
