<svg width="23" height="15" viewBox="0 0 23 15" fill="none" xmlns="http://www.w3.org/2000/svg">
<path fill-rule="evenodd" clip-rule="evenodd" d="M11.8398 0C6.83984 0 2.56984 3.11 0.839844 7.5C2.56984 11.89 6.83984 15 11.8398 15C16.8398 15 21.1098 11.89 22.8398 7.5C21.1098 3.11 16.8398 0 11.8398 0ZM11.8398 12.5C9.07984 12.5 6.83984 10.26 6.83984 7.5C6.83984 4.74 9.07984 2.5 11.8398 2.5C14.5998 2.5 16.8398 4.74 16.8398 7.5C16.8398 10.26 14.5998 12.5 11.8398 12.5ZM8.83984 7.5C8.83984 5.84 10.1798 4.5 11.8398 4.5C13.4998 4.5 14.8398 5.84 14.8398 7.5C14.8398 9.16 13.4998 10.5 11.8398 10.5C10.1798 10.5 8.83984 9.16 8.83984 7.5Z" fill="#C7C7C7"/>
</svg>
