<svg width="57" height="25" viewBox="0 0 57 25" fill="none" xmlns="http://www.w3.org/2000/svg">
    <rect x="0.5" y="0.5" width="56" height="24" rx="12" fill="white" stroke="#405189"/>
    <path d="M42.7903 5.53294C41.2037 5.13961 39.6703 5.35294 38.3703 5.95961C38.137 6.06628 38.097 6.38628 38.3037 6.53294C40.037 7.73294 41.1703 9.73294 41.1703 11.9996C41.1703 14.2663 40.037 16.2663 38.3037 17.4663C38.0903 17.6129 38.1303 17.9329 38.3637 18.0396C39.217 18.4396 40.1703 18.6663 41.1703 18.6663C45.2037 18.6663 48.4037 15.0796 47.7503 10.9329C47.3437 8.31961 45.357 6.15961 42.7903 5.53294Z" fill="#F4F4F4"/>
    <path fill-rule="evenodd" clip-rule="evenodd" d="M15.0033 4.70001H15.0099C15.3766 4.70001 15.6699 4.99335 15.6699 5.36001V6.00668C15.6699 6.37335 15.3766 6.66668 15.0033 6.66001H14.9966C14.6299 6.66001 14.3366 6.36668 14.3366 6.00001V5.36001C14.3366 4.99335 14.6299 4.70001 15.0033 4.70001ZM11.0366 7.09335L10.7766 6.83335C10.5166 6.57335 10.0966 6.58001 9.84326 6.83335L9.83659 6.84001C9.57659 7.10001 9.57659 7.52001 9.83659 7.77335L10.0966 8.03335C10.3566 8.29335 10.7699 8.29335 11.0299 8.03335L11.0366 8.02668C11.2966 7.77335 11.2966 7.34668 11.0366 7.09335ZM9.00992 11.3333H8.32992C7.96326 11.3333 7.66992 11.6267 7.66992 11.9933V12C7.66992 12.3667 7.96326 12.66 8.32992 12.66H9.00326C9.37659 12.6667 9.66992 12.3733 9.66992 12.0067V12C9.66992 11.6267 9.37659 11.3333 9.00992 11.3333ZM20.1699 6.84001C19.9099 6.58001 19.4899 6.58001 19.2299 6.83335L18.9699 7.09335C18.7099 7.35335 18.7099 7.77335 18.9699 8.02668L18.9766 8.03335C19.2366 8.29335 19.6566 8.29335 19.9099 8.03335L20.1699 7.77335C20.4299 7.51335 20.4299 7.10001 20.1699 6.84001ZM19.2233 17.1667L18.9633 16.9067C18.7033 16.6467 18.7033 16.2333 18.9699 15.9667C19.2233 15.7133 19.6433 15.7067 19.9033 15.9667L20.1633 16.2267C20.4233 16.4867 20.4233 16.9067 20.1633 17.1667C19.9033 17.4267 19.4833 17.4267 19.2233 17.1667ZM20.3366 11.9933V12C20.3366 12.3667 20.6299 12.66 20.9966 12.66H21.6699C22.0366 12.66 22.3299 12.3667 22.3299 12V11.9933C22.3299 11.6267 22.0366 11.3333 21.6699 11.3333H20.9966C20.6299 11.3333 20.3366 11.6267 20.3366 11.9933ZM11.0033 12C11.0033 9.79335 12.7966 8.00001 15.0033 8.00001C17.2099 8.00001 19.0033 9.79335 19.0033 12C19.0033 14.2067 17.2099 16 15.0033 16C12.7966 16 11.0033 14.2067 11.0033 12ZM14.9966 19.3H15.0033C15.3699 19.3 15.6633 19.0067 15.6633 18.64V18C15.6633 17.6333 15.3699 17.34 15.0033 17.34H14.9966C14.6299 17.34 14.3366 17.6333 14.3366 18V18.64C14.3366 19.0067 14.6299 19.3 14.9966 19.3ZM10.7766 17.16C10.5166 17.42 10.0966 17.42 9.83659 17.16C9.57659 16.9 9.57659 16.4867 9.82992 16.22L10.0899 15.96C10.2145 15.8352 10.3836 15.765 10.5599 15.765C10.7363 15.765 10.9054 15.8352 11.0299 15.96L11.0366 15.9667C11.2899 16.22 11.2966 16.64 11.0366 16.9L10.7766 17.16Z" fill="#405189"/>
</svg>
