<svg width="23" height="23" viewBox="0 0 23 23" fill="none" xmlns="http://www.w3.org/2000/svg">
    <path d="M9.3878 19.4795C9.35841 19.4013 9.34829 19.3348 9.35826 19.281C9.36818 19.2276 9.33401 19.1833 9.25566 19.1492C9.17731 19.1151 9.13821 19.088 9.13821 19.0687C9.13821 19.0492 9.08206 19.0344 8.96949 19.0248C8.85698 19.015 8.80082 19.01 8.80082 19.01H8.61022H8.44889H4.2244C3.579 19.01 3.02645 18.7804 2.56678 18.3205C2.10721 17.8608 1.87746 17.3084 1.87746 16.6631V6.33654C1.87746 5.69115 2.10716 5.1388 2.56678 4.67918C3.02645 4.21951 3.579 3.9896 4.2244 3.9896H8.91822C9.04538 3.9896 9.14536 3.95806 9.21888 3.89435C9.29209 3.8308 9.34089 3.73539 9.36545 3.60828C9.38991 3.48118 9.40465 3.3664 9.40959 3.2637C9.41442 3.1611 9.41205 3.03143 9.40219 2.87499C9.39248 2.71859 9.3876 2.62083 9.3876 2.58152C9.3876 2.45442 9.3411 2.34462 9.24826 2.25153C9.15532 2.15885 9.04538 2.11235 8.91827 2.11235H4.2244C3.06082 2.11235 2.06575 2.52552 1.23936 3.35181C0.413171 4.1781 0 5.17301 0 6.33669V16.6631C0 17.8267 0.413171 18.8218 1.23936 19.6478C2.06575 20.4745 3.06082 20.8877 4.2244 20.8877H8.91843C9.04558 20.8877 9.14561 20.8557 9.21908 20.7924C9.29229 20.7288 9.3411 20.6335 9.36566 20.5062C9.39011 20.3793 9.40486 20.2639 9.40979 20.1616C9.41462 20.0589 9.41226 19.9295 9.40239 19.7731C9.39258 19.6165 9.3878 19.5188 9.3878 19.4795Z" fill="#405189"/>
    <path d="M22.7215 10.8399L14.742 2.86014C14.5563 2.67457 14.3362 2.58147 14.082 2.58147C13.8277 2.58147 13.6076 2.67457 13.4217 2.86014C13.2359 3.04597 13.1431 3.26622 13.1431 3.52033V7.74483H6.57167C6.31725 7.74483 6.09731 7.83792 5.91148 8.0235C5.72565 8.20933 5.63281 8.42943 5.63281 8.68369V14.3164C5.63281 14.5706 5.72565 14.7907 5.91148 14.9765C6.09751 15.1619 6.31741 15.2553 6.57167 15.2553H13.1431V19.4797C13.1431 19.7338 13.2359 19.9541 13.4218 20.1398C13.6076 20.3256 13.8277 20.4186 14.082 20.4186C14.3362 20.4186 14.5563 20.3256 14.7421 20.1398L22.7215 12.1603C22.9073 11.9744 23.0002 11.7546 23.0002 11.5003C23.0002 11.246 22.9073 11.0257 22.7215 10.8399Z" fill="#405189"/>
</svg>
