<svg width="113" height="30" viewBox="0 0 113 30" fill="none" xmlns="http://www.w3.org/2000/svg">
    <path d="M71.6191 5.33334H74.6668V18.2857H71.6191V5.33334Z" fill="#586063"/>
    <path d="M52.2207 5.33334H55.2683V18.2857H52.2207V5.33334Z" fill="#586063"/>
    <path d="M81.7742 5.33334H76.9521V18.2857H79.7729V14.2103H81.7735C84.1606 14.2103 86.095 12.2228 86.095 9.77181C86.095 7.32006 84.1599 5.33334 81.7735 5.33334H81.7742ZM81.6017 11.6114H79.7729V8.09513H81.6017C82.5474 8.09513 83.3136 8.88206 83.3136 9.85327C83.3136 10.8245 82.5474 11.6114 81.6017 11.6114Z" fill="#586063"/>
    <path d="M97.5239 18.2857L94.8181 13.572C96.0948 12.7946 97.0172 11.6684 97.1051 9.77181C97.1931 7.87526 95.559 5.33334 92.696 5.33334H87.6191V18.2857H90.497V14.0489H91.974L94.3279 18.2857H97.5231H97.5239ZM90.4978 8.09434H92.5719C93.5367 8.09434 94.3184 8.88127 94.3184 9.85248C94.3184 10.8237 93.5367 11.6106 92.5719 11.6106H90.4978V8.09434Z" fill="#586063"/>
    <path d="M111.215 8.79652C110.692 7.80121 109.953 7.00528 109 6.40636C108.557 6.1332 108.09 5.91185 107.6 5.74309C107.11 5.57432 106.617 5.45736 106.12 5.39221C105.959 5.37966 105.794 5.36631 105.627 5.35297C105.458 5.34041 105.294 5.33334 105.133 5.33334C103.938 5.33334 102.791 5.62613 101.689 6.21091C100.588 6.79648 99.729 7.64187 99.1112 8.74707C98.9363 9.05948 98.7887 9.38759 98.6684 9.73218C98.5473 10.0768 98.4536 10.4182 98.3865 10.7565C98.3458 10.9386 98.3193 11.1145 98.306 11.2832C98.2928 11.4528 98.2861 11.6215 98.2861 11.7903C98.2861 12.9348 98.6087 14.0368 99.253 15.0973C99.8974 16.1577 100.784 16.9733 101.912 17.5455C102.328 17.7535 102.761 17.916 103.21 18.033C103.66 18.1499 104.113 18.2284 104.569 18.2669C104.663 18.2669 104.754 18.27 104.841 18.2763C104.928 18.2826 105.019 18.2857 105.113 18.2857C106.429 18.2857 107.684 17.938 108.879 17.2417C110.074 16.5463 110.953 15.5675 111.517 14.3061C111.624 14.0462 111.715 13.7825 111.789 13.5156C111.863 13.2495 111.913 12.9795 111.94 12.7063C111.966 12.5768 111.983 12.4426 111.99 12.3068C111.997 12.1702 112 12.0368 112 11.9065C112 10.8272 111.738 9.78948 111.215 8.79495V8.79652ZM105.118 15.7292C102.949 15.7292 101.19 13.9756 101.19 11.8131C101.19 9.65054 102.949 7.89698 105.118 7.89698C107.288 7.89698 109.047 9.65054 109.047 11.8131C109.047 13.9756 107.288 15.7292 105.118 15.7292Z" fill="#586063"/>
    <path d="M68.3448 11.1511V11.1314H63.8304V13.6685H67.3024C67.1465 14.0466 66.9348 14.389 66.6621 14.6816C66.4513 14.9221 66.1973 15.1285 65.9293 15.3072C65.3242 15.709 64.5028 15.7762 63.7826 15.7762H63.7818C63.7747 15.7762 63.7685 15.7762 63.7614 15.7762C61.6233 15.7762 59.8904 14.0252 59.8904 11.8653C59.8904 9.70538 61.6233 7.95435 63.7614 7.95435C64.9755 7.95435 66.0586 8.51904 66.7679 9.40326L69.2846 8.21139C68.6285 7.26548 67.8268 6.54894 66.8808 6.06254C65.9348 5.57615 64.9214 5.33334 63.8406 5.33334C63.6862 5.33334 63.5286 5.33967 63.368 5.35312C63.2065 5.36656 63.0427 5.38554 62.8758 5.41164C62.8499 5.41164 62.8209 5.4148 62.7888 5.42113C62.7566 5.42746 62.7214 5.43062 62.683 5.43062C62.6312 5.44407 62.5834 5.45356 62.538 5.45989C62.4925 5.46621 62.4447 5.46938 62.393 5.46938C60.7839 5.72879 59.5072 6.4746 58.5612 7.70601C57.6152 8.93821 57.1426 10.3057 57.1426 11.8099C57.1426 12.0171 57.1551 12.2251 57.181 12.4324C57.2068 12.6396 57.239 12.8476 57.2774 13.0548C57.3158 13.2754 57.3675 13.489 57.4318 13.6962C57.4961 13.9034 57.5666 14.1114 57.6442 14.3186C58.1332 15.5761 58.9437 16.5426 60.077 17.2164C61.2095 17.8911 62.4126 18.247 63.687 18.2857H63.9762C65.0828 18.2723 66.1448 17.9971 67.1614 17.4592C68.1779 16.9214 68.9569 16.1203 69.497 15.0573C69.7289 14.5393 69.8833 14.007 69.9602 13.4629C70.0377 12.918 70.0824 12.3675 70.095 11.8099V11.1519H68.3448V11.1511Z" fill="#586063"/>
    <path d="M44.4019 6.09525H39.6191V18.2857H44.4019C47.6516 18.2857 50.2858 15.6304 50.2858 12.3545V12.0272C50.2858 8.75137 47.6516 6.09601 44.4019 6.09601V6.09525ZM47.6871 12.4817C47.6871 14.2707 46.2484 15.7202 44.4744 15.7202H42.2186V8.76964H44.4744C46.2492 8.76964 47.6871 10.2199 47.6871 12.0082V12.4809V12.4817Z" fill="#586063"/>
    <path d="M40.2243 21.894C40.9136 21.894 41.1376 22.1635 41.1376 22.4992C41.1376 22.7963 40.9208 22.9591 40.6297 22.997C41.036 23.0626 41.3751 23.2664 41.3751 23.6883C41.3751 24.062 41.1823 24.4247 40.3602 24.4073C39.73 24.397 39.5101 24.3765 39.4261 24.3662C39.4261 23.5224 39.4189 22.7378 39.4189 21.894H40.2243ZM40.2035 22.9385C40.6793 22.9385 40.8753 22.8137 40.8753 22.4992C40.8753 22.2196 40.6929 22.0426 40.2275 22.0426H39.6461V22.9377H40.2027L40.2035 22.9385ZM39.6469 24.2493L40.1715 24.2737C40.9168 24.2911 41.0992 24.0383 41.0992 23.6614C41.0992 23.2846 40.7985 23.0942 40.361 23.0942H39.6461V24.2493H39.6469Z" fill="#4285F4" stroke="#4285F4" stroke-width="0.3"/>
    <path d="M41.7324 21.894H43.1847V22.0394H41.9531V23.0317H42.8664V23.1803H41.9531V24.2137H43.2687V24.3622H41.7324V21.8932V21.894Z" fill="#4285F4" stroke="#4285F4" stroke-width="0.3"/>
    <path d="M45.1626 22.1563C44.8371 22.0078 44.6236 21.9833 44.3685 21.9833C44.0502 21.9833 43.7767 22.1563 43.7767 22.4605C43.7767 22.7647 43.9758 22.8753 44.3229 22.9685C44.7116 23.0863 45.2402 23.2482 45.2402 23.7744C45.2402 24.3006 44.6316 24.431 44.2949 24.431C43.8855 24.431 43.6232 24.3132 43.5008 24.2303V24.002C43.6759 24.1299 43.9734 24.265 44.2949 24.265C44.6764 24.265 44.9739 24.047 44.9739 23.7744C44.9739 23.6156 44.9427 23.3422 44.3333 23.1834H44.3365C43.8047 23.0349 43.5 22.8548 43.5 22.4574C43.5 22.1358 43.8007 21.8348 44.3717 21.8348C44.8268 21.8348 45.0299 21.9146 45.1626 21.9801V22.1563Z" fill="#4285F4" stroke="#4285F4" stroke-width="0.3"/>
    <path d="M47.4479 22.0355H46.5138V24.3622H46.2795V22.0355H45.3174V21.8869H47.4487V22.0355H47.4479Z" fill="#4285F4" stroke="#4285F4" stroke-width="0.3"/>
    <path d="M50.4063 21.9493V22.1603C50.1928 22.06 49.9761 21.9802 49.7346 21.9802C49.6786 21.9802 48.7789 22.0007 48.7373 23.1352C48.7517 24.2801 49.6402 24.2587 49.7346 24.2587C50.0177 24.2587 50.2456 24.1378 50.4311 23.9893V24.2279C50.3224 24.3006 50.0744 24.4357 49.7346 24.4357C48.9052 24.4357 48.4606 23.8511 48.4502 23.1392C48.4502 22.2922 49.0276 21.8356 49.7346 21.8356C49.9729 21.8356 50.2072 21.8909 50.4063 21.9493Z" fill="#4285F4" stroke="#4285F4" stroke-width="0.3"/>
    <path d="M52.7866 21.8901V23.3043C52.7866 23.678 52.797 24.4073 51.8277 24.4073C50.8584 24.4073 50.8408 23.6741 50.8408 23.2767V21.8901H51.0679V23.3043C51.0679 23.5224 51.0711 24.2445 51.8277 24.2445C52.5842 24.2445 52.5658 23.5287 52.5658 23.3043V21.8901H52.7866Z" fill="#4285F4" stroke="#4285F4" stroke-width="0.3"/>
    <path d="M54.816 22.1563C54.4905 22.0078 54.2769 21.9833 54.0218 21.9833C53.7035 21.9833 53.43 22.1563 53.43 22.4605C53.43 22.7647 53.6292 22.8753 53.9762 22.9685C54.3649 23.0863 54.8935 23.2482 54.8935 23.7744C54.8935 24.3006 54.2849 24.431 53.9482 24.431C53.5388 24.431 53.2765 24.3132 53.1541 24.2303V24.002C53.3293 24.1299 53.6268 24.265 53.9482 24.265C54.3297 24.265 54.6272 24.047 54.6272 23.7744C54.6272 23.6156 54.596 23.3422 53.9866 23.1834H53.9898C53.458 23.0349 53.1533 22.8548 53.1533 22.4574C53.1533 22.1358 53.454 21.8348 54.025 21.8348C54.4801 21.8348 54.6832 21.9146 54.816 21.9801V22.1563Z" fill="#4285F4" stroke="#4285F4" stroke-width="0.3"/>
    <path d="M57.1022 22.0355H56.1681V24.3622H55.9338V22.0355H54.9717V21.8869H57.103V22.0355H57.1022Z" fill="#4285F4" stroke="#4285F4" stroke-width="0.3"/>
    <path d="M59.794 23.1321C59.794 23.8653 59.4269 24.4325 58.4817 24.4325C57.5364 24.4325 57.1725 23.9103 57.1621 23.1321C57.1621 22.2851 57.6451 21.849 58.4817 21.8356C59.395 21.8498 59.794 22.2851 59.794 23.1321ZM58.4817 24.2769C58.6248 24.2769 59.5597 24.2737 59.5597 23.1289C59.5597 21.9841 58.6216 21.9881 58.4785 21.9881C58.3105 21.9881 57.4356 21.9952 57.4356 23.1289C57.4356 24.2627 58.3137 24.2769 58.4817 24.2769Z" fill="#4285F4" stroke="#4285F4" stroke-width="0.3"/>
    <path d="M61.3486 24.0723L60.3473 22.0323C60.3473 22.7655 60.3369 23.5642 60.3369 24.363H60.1162V21.8909H60.5433L61.3902 23.7444C61.4534 23.8795 61.5269 23.8242 61.5613 23.7444C62.2891 22.1295 62.3523 21.9983 62.3946 21.8909H62.7905V24.363H62.5666L62.5634 22.0291L61.6077 24.0723H61.3486Z" fill="#4285F4" stroke="#4285F4" stroke-width="0.3"/>
    <path d="M63.2559 21.894H64.7082V22.0394H63.4766V23.0317H64.3899V23.1803H63.4766V24.2137H64.7921V24.3622H63.2559V21.8932V21.894Z" fill="#4285F4" stroke="#4285F4" stroke-width="0.3"/>
    <path d="M65.989 21.8901C66.556 21.8901 66.8183 22.1421 66.8183 22.481C66.8183 22.8682 66.5176 23.0483 66.2761 23.076C66.5176 23.1313 66.5872 23.294 66.6607 23.4734L67.0214 24.3622H66.7903C66.5104 23.6638 66.4088 23.4118 66.3912 23.373C66.3208 23.2245 66.2305 23.1589 66.0729 23.1589H65.3692V24.3622H65.1484V21.8901H65.9882H65.989ZM65.989 22.9899C66.4544 22.9899 66.5808 22.7165 66.5808 22.5127C66.5808 22.2946 66.4304 22.0426 65.989 22.0426H65.3692V22.9899H65.989Z" fill="#4285F4" stroke="#4285F4" stroke-width="0.3"/>
    <path d="M68.2717 23.3114V23.4876H67.292V23.3114H68.2717Z" fill="#4285F4" stroke="#4285F4" stroke-width="0.3"/>
    <path d="M69.3148 21.8869C70.2488 21.8869 70.6023 22.6375 70.6023 23.1352C70.6023 23.633 70.3256 24.3591 69.318 24.3591H68.6846V21.8869H69.3148ZM68.9125 24.0754C68.9125 24.2066 68.9157 24.2105 68.9997 24.2105H69.318C69.7274 24.2105 70.3224 23.9617 70.3224 23.1352C70.3224 22.3088 69.7274 22.0355 69.318 22.0355C68.9997 22.0355 68.9117 22.0386 68.9117 22.0631V24.0754H68.9125Z" fill="#4285F4" stroke="#4285F4" stroke-width="0.3"/>
    <path d="M71.8239 21.8901C72.3909 21.8901 72.6532 22.1421 72.6532 22.481C72.6532 22.8682 72.3525 23.0483 72.111 23.076C72.3525 23.1313 72.4221 23.294 72.4957 23.4734L72.8564 24.3622H72.6252C72.3453 23.6638 72.2438 23.4118 72.2262 23.373C72.1558 23.2245 72.0654 23.1589 71.9079 23.1589H71.2041V24.3622H70.9834V21.8901H71.8231H71.8239ZM71.8239 22.9899C72.2894 22.9899 72.4157 22.7165 72.4157 22.5127C72.4157 22.2946 72.2654 22.0426 71.8239 22.0426H71.2041V22.9899H71.8239Z" fill="#4285F4" stroke="#4285F4" stroke-width="0.3"/>
    <path d="M73.252 21.8901H73.4759V24.3622H73.252V21.8901Z" fill="#4285F4" stroke="#4285F4" stroke-width="0.3"/>
    <path d="M75.0374 24.3622H74.6975L73.7842 21.8901H74.0289L74.8686 24.2034L75.7083 21.8901H75.985L75.0366 24.3622H75.0374Z" fill="#4285F4" stroke="#4285F4" stroke-width="0.3"/>
    <path d="M76.3428 21.894H77.7951V22.0394H76.5635V23.0317H77.4768V23.1803H76.5635V24.2137H77.8791V24.3622H76.3428V21.8932V21.894Z" fill="#4285F4" stroke="#4285F4" stroke-width="0.3"/>
    <path d="M78.2334 21.894H78.5661L79.9552 24.0999V21.894H80.1863V24.363H79.924L78.4573 22.0363V24.363H78.2334V21.894Z" fill="#4285F4" stroke="#4285F4" stroke-width="0.3"/>
    <path d="M83.3893 22.0355H82.4552V24.3622H82.2209V22.0355H81.2588V21.8869H83.3901V22.0355H83.3893Z" fill="#4285F4" stroke="#4285F4" stroke-width="0.3"/>
    <path d="M84.446 21.8901C85.013 21.8901 85.2753 22.1421 85.2753 22.481C85.2753 22.8682 84.9746 23.0483 84.7331 23.076C84.9746 23.1313 85.045 23.294 85.1178 23.4734L85.4784 24.3622H85.2473C84.9674 23.6638 84.8658 23.4118 84.8482 23.373C84.7779 23.2245 84.6875 23.1589 84.53 23.1589H83.8262V24.3622H83.6055V21.8901H84.4452H84.446ZM84.446 22.9899C84.9114 22.9899 85.0378 22.7165 85.0378 22.5127C85.0378 22.2946 84.8874 22.0426 84.446 22.0426H83.8262V22.9899H84.446Z" fill="#4285F4" stroke="#4285F4" stroke-width="0.3"/>
    <path d="M86.5394 21.8901H86.9001L87.7782 24.3622H87.5191L87.204 23.422H86.1819L85.7933 24.3622H85.5518L86.5386 21.8901H86.5394ZM86.7146 22.0038L86.2179 23.2759H87.1592L86.7146 22.0038Z" fill="#4285F4" stroke="#4285F4" stroke-width="0.3"/>
    <path d="M88.0234 21.894H88.3561L89.7453 24.0999V21.894H89.9764V24.363H89.7141L88.2474 22.0363V24.363H88.0234V21.894Z" fill="#4285F4" stroke="#4285F4" stroke-width="0.3"/>
    <path d="M91.9644 22.1563C91.6389 22.0078 91.4254 21.9833 91.1703 21.9833C90.852 21.9833 90.5785 22.1563 90.5785 22.4605C90.5785 22.7647 90.7776 22.8753 91.1247 22.9685C91.5133 23.0863 92.042 23.2482 92.042 23.7744C92.042 24.3006 91.4334 24.431 91.0967 24.431C90.6872 24.431 90.4249 24.3132 90.3026 24.2303V24.002C90.4777 24.1299 90.7752 24.265 91.0967 24.265C91.4782 24.265 91.7757 24.047 91.7757 23.7744C91.7757 23.6156 91.7445 23.3422 91.1351 23.1834H91.1383C90.6065 23.0349 90.3018 22.8548 90.3018 22.4574C90.3018 22.1358 90.6025 21.8348 91.1735 21.8348C91.6285 21.8348 91.8316 21.9146 91.9644 21.9801V22.1563Z" fill="#4285F4" stroke="#4285F4" stroke-width="0.3"/>
    <path d="M92.4062 21.894H94.0233V22.0465H92.6302V23.0317H93.4947V23.2048H92.6302V24.363H92.4062V21.894Z" fill="#4285F4" stroke="#4285F4" stroke-width="0.3"/>
    <path d="M96.8126 23.1321C96.8126 23.8653 96.4455 24.4325 95.5002 24.4325C94.5549 24.4325 94.1911 23.9103 94.1807 23.1321C94.1807 22.2851 94.6637 21.849 95.5002 21.8356C96.4135 21.8498 96.8126 22.2851 96.8126 23.1321ZM95.5002 24.2769C95.6434 24.2769 96.5783 24.2737 96.5783 23.1289C96.5783 21.9841 95.6402 21.9881 95.497 21.9881C95.3291 21.9881 94.4542 21.9952 94.4542 23.1289C94.4542 24.2627 95.3323 24.2769 95.5002 24.2769Z" fill="#4285F4" stroke="#4285F4" stroke-width="0.3"/>
    <path d="M97.9743 21.8901C98.5413 21.8901 98.8036 22.1421 98.8036 22.481C98.8036 22.8682 98.5029 23.0483 98.2614 23.076C98.5029 23.1313 98.5733 23.294 98.6461 23.4734L99.0068 24.3622H98.7756C98.4957 23.6638 98.3942 23.4118 98.3766 23.373C98.3062 23.2245 98.2158 23.1589 98.0583 23.1589H97.3545V24.3622H97.1338V21.8901H97.9735H97.9743ZM97.9743 22.9899C98.4397 22.9899 98.5661 22.7165 98.5661 22.5127C98.5661 22.2946 98.4158 22.0426 97.9743 22.0426H97.3545V22.9899H97.9743Z" fill="#4285F4" stroke="#4285F4" stroke-width="0.3"/>
    <path d="M100.597 24.0723L99.5954 22.0323C99.5954 22.7655 99.585 23.5642 99.585 24.363H99.3643V21.8909H99.7913L100.638 23.7444C100.701 23.8795 100.775 23.8242 100.809 23.7444C101.537 22.1295 101.6 21.9983 101.643 21.8909H102.039V24.363H101.815L101.811 22.0291L100.856 24.0723H100.597Z" fill="#4285F4" stroke="#4285F4" stroke-width="0.3"/>
    <path d="M103.201 21.8901H103.561L104.439 24.3622H104.18L103.865 23.422H102.843L102.454 24.3622H102.213L103.2 21.8901H103.201ZM103.376 22.0038L102.879 23.2759H103.82L103.376 22.0038Z" fill="#4285F4" stroke="#4285F4" stroke-width="0.3"/>
    <path d="M106.218 22.0355H105.284V24.3622H105.05V22.0355H104.088V21.8869H106.219V22.0355H106.218Z" fill="#4285F4" stroke="#4285F4" stroke-width="0.3"/>
    <path d="M106.473 21.8901H106.697V24.3622H106.473V21.8901Z" fill="#4285F4" stroke="#4285F4" stroke-width="0.3"/>
    <path d="M109.728 23.1321C109.728 23.8653 109.361 24.4325 108.415 24.4325C107.47 24.4325 107.106 23.9103 107.096 23.1321C107.096 22.2851 107.579 21.849 108.415 21.8356C109.329 21.8498 109.728 22.2851 109.728 23.1321ZM108.415 24.2769C108.558 24.2769 109.493 24.2737 109.493 23.1289C109.493 21.9841 108.555 21.9881 108.412 21.9881C108.244 21.9881 107.369 21.9952 107.369 23.1289C107.369 24.2627 108.247 24.2769 108.415 24.2769Z" fill="#4285F4" stroke="#4285F4" stroke-width="0.3"/>
    <path d="M110.047 21.894H110.38L111.769 24.0999V21.894H112V24.363H111.737L110.271 22.0363V24.363H110.047V21.894Z" fill="#4285F4" stroke="#4285F4" stroke-width="0.3"/>
    <path d="M21.4864 14.8544C21.4864 16.5018 20.1387 17.8368 18.4774 17.8368H15.9648V21.755H18.6672C22.5513 21.755 25.6992 18.6341 25.6992 14.7851C25.6992 10.9354 22.5505 7.81525 18.6672 7.81525H15.9648V11.872H18.4774C20.1395 11.872 21.4864 13.2078 21.4864 14.8544Z" fill="#4285F4"/>
    <path d="M0 21.8337L4.03096 21.8321L3.97219 3.99696H15.9642V0H0V21.8337Z" fill="#EB4335"/>
    <path d="M11.9771 25.711V11.8712H15.9644V7.81445H8.00488V29.7143H15.9644V25.711H11.9771Z" fill="#34A852"/>
    <path d="M33.5235 14.8575C33.5235 6.65189 26.8123 0 18.5336 0H15.9639V3.99696H18.6893C24.7389 3.99696 29.6434 8.85816 29.6434 14.8544C29.6434 17.4755 28.7063 19.8793 27.1467 21.755H31.8121C32.9041 19.6936 33.5235 17.3472 33.5235 14.8575Z" fill="#FABB05"/>
    <path d="M18.6903 25.711H15.9648V29.7143H18.5346C24.3007 29.7143 29.3061 26.4863 31.8131 21.755H27.1477C25.1385 24.1707 22.0963 25.711 18.6911 25.711H18.6903Z" fill="#4285F4"/>
</svg>
