<svg width="113" height="30" viewBox="0 0 113 30" fill="none" xmlns="http://www.w3.org/2000/svg">
    <path d="M71.6191 5.33325H74.6668V18.2856H71.6191V5.33325Z" fill="white"/>
    <path d="M52.2209 5.33325H55.2686V18.2856H52.2209V5.33325Z" fill="white"/>
    <path d="M81.7745 5.33325H76.9524V18.2856H79.7731V14.2102H81.7737C84.1609 14.2102 86.0953 12.2227 86.0953 9.77172C86.0953 7.31997 84.1601 5.33325 81.7737 5.33325H81.7745ZM81.602 11.6113H79.7731V8.09504H81.602C82.5476 8.09504 83.3138 8.88197 83.3138 9.85318C83.3138 10.8244 82.5476 11.6113 81.602 11.6113Z" fill="white"/>
    <path d="M97.5239 18.2856L94.8181 13.5719C96.0948 12.7945 97.0172 11.6683 97.1051 9.77172C97.1931 7.87517 95.559 5.33325 92.696 5.33325H87.6191V18.2856H90.497V14.0488H91.974L94.3279 18.2856H97.5231H97.5239ZM90.4978 8.09424H92.5719C93.5367 8.09424 94.3184 8.88118 94.3184 9.85239C94.3184 10.8236 93.5367 11.6105 92.5719 11.6105H90.4978V8.09424Z" fill="white"/>
    <path d="M111.215 8.79643C110.691 7.80112 109.952 7.00519 109 6.40627C108.557 6.13311 108.09 5.91176 107.6 5.74299C107.11 5.57423 106.616 5.45727 106.12 5.39212C105.959 5.37956 105.794 5.36622 105.626 5.35288C105.458 5.34032 105.294 5.33325 105.133 5.33325C103.938 5.33325 102.79 5.62604 101.689 6.21082C100.588 6.79639 99.7286 7.64178 99.1108 8.74698C98.9358 9.05939 98.7882 9.3875 98.6679 9.73209C98.5469 10.0767 98.4532 10.4181 98.386 10.7564C98.3453 10.9385 98.3188 11.1144 98.3055 11.2831C98.2923 11.4527 98.2856 11.6214 98.2856 11.7902C98.2856 12.9347 98.6082 14.0367 99.2526 15.0972C99.8969 16.1576 100.783 16.9732 101.911 17.5454C102.327 17.7534 102.76 17.9159 103.21 18.0329C103.659 18.1498 104.113 18.2283 104.569 18.2668C104.663 18.2668 104.753 18.2699 104.841 18.2762C104.928 18.2825 105.018 18.2856 105.113 18.2856C106.428 18.2856 107.684 17.9379 108.879 17.2417C110.074 16.5462 110.953 15.5674 111.516 14.306C111.623 14.0461 111.715 13.7824 111.788 13.5155C111.862 13.2494 111.913 12.9794 111.939 12.7062C111.966 12.5767 111.983 12.4425 111.99 12.3067C111.997 12.1701 112 12.0367 112 11.9064C112 10.8271 111.738 9.78939 111.215 8.79486V8.79643ZM105.118 15.7291C102.949 15.7291 101.19 13.9755 101.19 11.813C101.19 9.65045 102.949 7.89688 105.118 7.89688C107.287 7.89688 109.046 9.65045 109.046 11.813C109.046 13.9755 107.287 15.7291 105.118 15.7291Z" fill="white"/>
    <path d="M68.3451 11.151V11.1313H63.8306V13.6684H67.3027C67.1467 14.0465 66.9351 14.3889 66.6623 14.6816C66.4515 14.922 66.1976 15.1284 65.9295 15.3071C65.3245 15.7089 64.5031 15.7761 63.7828 15.7761H63.782C63.775 15.7761 63.7687 15.7761 63.7617 15.7761C61.6236 15.7761 59.8907 14.0251 59.8907 11.8652C59.8907 9.70528 61.6236 7.95426 63.7617 7.95426C64.9757 7.95426 66.0589 8.51895 66.7682 9.40316L69.2848 8.21129C68.6288 7.26539 67.827 6.54885 66.881 6.06245C65.935 5.57605 64.9216 5.33325 63.8408 5.33325C63.6864 5.33325 63.5289 5.33958 63.3682 5.35302C63.2068 5.36647 63.043 5.38545 62.876 5.41155C62.8501 5.41155 62.8211 5.41471 62.789 5.42104C62.7569 5.42737 62.7216 5.43053 62.6832 5.43053C62.6315 5.44398 62.5837 5.45347 62.5382 5.45979C62.4928 5.46612 62.4449 5.46928 62.3932 5.46928C60.7842 5.7287 59.5074 6.4745 58.5614 7.70592C57.6154 8.93812 57.1428 10.3056 57.1428 11.8098C57.1428 12.0171 57.1554 12.2251 57.1812 12.4323C57.2071 12.6395 57.2392 12.8475 57.2776 13.0547C57.316 13.2754 57.3678 13.4889 57.432 13.6961C57.4963 13.9033 57.5668 14.1113 57.6444 14.3185C58.1335 15.5761 58.9439 16.5425 60.0772 17.2164C61.2097 17.891 62.4128 18.2469 63.6872 18.2856H63.9764C65.0831 18.2722 66.1451 17.997 67.1616 17.4592C68.1781 16.9213 68.9572 16.1202 69.4972 15.0572C69.7292 14.5392 69.8836 14.0069 69.9604 13.4628C70.038 12.9179 70.0827 12.3674 70.0952 11.8098V11.1518H68.3451V11.151Z" fill="white"/>
    <path d="M44.4019 6.09521H39.6191V18.2857H44.4019C47.6516 18.2857 50.2858 15.6303 50.2858 12.3545V12.0272C50.2858 8.75134 47.6516 6.09598 44.4019 6.09598V6.09521ZM47.6871 12.4816C47.6871 14.2707 46.2484 15.7202 44.4744 15.7202H42.2186V8.76961H44.4744C46.2492 8.76961 47.6871 10.2199 47.6871 12.0081V12.4809V12.4816Z" fill="white"/>
    <path d="M40.2243 21.894C40.9136 21.894 41.1376 22.1635 41.1376 22.4992C41.1376 22.7963 40.9208 22.9591 40.6297 22.997C41.036 23.0626 41.3751 23.2664 41.3751 23.6883C41.3751 24.062 41.1823 24.4247 40.3602 24.4073C39.73 24.397 39.5101 24.3765 39.4261 24.3662C39.4261 23.5224 39.4189 22.7378 39.4189 21.894H40.2243ZM40.2035 22.9385C40.6793 22.9385 40.8753 22.8137 40.8753 22.4992C40.8753 22.2196 40.6929 22.0426 40.2275 22.0426H39.6461V22.9377H40.2027L40.2035 22.9385ZM39.6469 24.2493L40.1715 24.2737C40.9168 24.2911 41.0992 24.0383 41.0992 23.6614C41.0992 23.2846 40.7985 23.0942 40.361 23.0942H39.6461V24.2493H39.6469Z" fill="white" stroke="white" stroke-width="0.3"/>
    <path d="M41.7327 21.8939H43.185V22.0392H41.9534V23.0316H42.8667V23.1801H41.9534V24.2135H43.2689V24.362H41.7327V21.8931V21.8939Z" fill="white" stroke="white" stroke-width="0.3"/>
    <path d="M45.1626 22.1563C44.8371 22.0077 44.6236 21.9833 44.3685 21.9833C44.0502 21.9833 43.7767 22.1563 43.7767 22.4605C43.7767 22.7646 43.9758 22.8752 44.3229 22.9685C44.7116 23.0862 45.2402 23.2482 45.2402 23.7743C45.2402 24.3005 44.6316 24.4309 44.2949 24.4309C43.8855 24.4309 43.6232 24.3132 43.5008 24.2302V24.0019C43.6759 24.1299 43.9734 24.265 44.2949 24.265C44.6764 24.265 44.9739 24.0469 44.9739 23.7743C44.9739 23.6155 44.9427 23.3422 44.3333 23.1834H44.3365C43.8047 23.0348 43.5 22.8547 43.5 22.4573C43.5 22.1357 43.8007 21.8347 44.3717 21.8347C44.8268 21.8347 45.0299 21.9145 45.1626 21.9801V22.1563Z" fill="white" stroke="white" stroke-width="0.3"/>
    <path d="M47.4481 22.0355H46.514V24.3623H46.2797V22.0355H45.3176V21.887H47.4489V22.0355H47.4481Z" fill="white" stroke="white" stroke-width="0.3"/>
    <path d="M50.4063 21.9492V22.1602C50.1928 22.0598 49.9761 21.98 49.7346 21.98C49.6786 21.98 48.7789 22.0006 48.7373 23.1351C48.7517 24.2799 49.6402 24.2586 49.7346 24.2586C50.0177 24.2586 50.2456 24.1377 50.4311 23.9892V24.2278C50.3224 24.3005 50.0744 24.4356 49.7346 24.4356C48.9052 24.4356 48.4606 23.8509 48.4502 23.1391C48.4502 22.2921 49.0276 21.8354 49.7346 21.8354C49.9729 21.8354 50.2072 21.8908 50.4063 21.9492Z" fill="white" stroke="white" stroke-width="0.3"/>
    <path d="M52.7863 21.8901V23.3044C52.7863 23.6781 52.7967 24.4073 51.8274 24.4073C50.8582 24.4073 50.8406 23.6741 50.8406 23.2767V21.8901H51.0677V23.3044C51.0677 23.5224 51.0709 24.2446 51.8274 24.2446C52.584 24.2446 52.5656 23.5287 52.5656 23.3044V21.8901H52.7863Z" fill="white" stroke="white" stroke-width="0.3"/>
    <path d="M54.8162 22.1563C54.4907 22.0077 54.2772 21.9833 54.0221 21.9833C53.7038 21.9833 53.4303 22.1563 53.4303 22.4605C53.4303 22.7646 53.6294 22.8752 53.9765 22.9685C54.3652 23.0862 54.8938 23.2482 54.8938 23.7743C54.8938 24.3005 54.2852 24.4309 53.9485 24.4309C53.539 24.4309 53.2767 24.3132 53.1544 24.2302V24.0019C53.3295 24.1299 53.627 24.265 53.9485 24.265C54.33 24.265 54.6275 24.0469 54.6275 23.7743C54.6275 23.6155 54.5963 23.3422 53.9869 23.1834H53.9901C53.4583 23.0348 53.1536 22.8547 53.1536 22.4573C53.1536 22.1357 53.4543 21.8347 54.0253 21.8347C54.4803 21.8347 54.6834 21.9145 54.8162 21.9801V22.1563Z" fill="white" stroke="white" stroke-width="0.3"/>
    <path d="M57.1017 22.0355H56.1676V24.3623H55.9333V22.0355H54.9712V21.887H57.1025V22.0355H57.1017Z" fill="white" stroke="white" stroke-width="0.3"/>
    <path d="M59.7938 23.132C59.7938 23.8651 59.4267 24.4324 58.4814 24.4324C57.5361 24.4324 57.1723 23.9102 57.1619 23.132C57.1619 22.285 57.6449 21.8489 58.4814 21.8354C59.3947 21.8497 59.7938 22.285 59.7938 23.132ZM58.4814 24.2768C58.6246 24.2768 59.5595 24.2736 59.5595 23.1288C59.5595 21.984 58.6214 21.9879 58.4782 21.9879C58.3103 21.9879 57.4354 21.995 57.4354 23.1288C57.4354 24.2626 58.3135 24.2768 58.4814 24.2768Z" fill="white" stroke="white" stroke-width="0.3"/>
    <path d="M61.3483 24.0723L60.3471 22.0323C60.3471 22.7655 60.3367 23.5642 60.3367 24.363H60.116V21.8909H60.543L61.3899 23.7444C61.4531 23.8795 61.5267 23.8242 61.5611 23.7444C62.2888 22.1295 62.352 21.9983 62.3944 21.8909H62.7903V24.363H62.5663L62.5631 22.0291L61.6075 24.0723H61.3483Z" fill="white" stroke="white" stroke-width="0.3"/>
    <path d="M63.2556 21.8939H64.7079V22.0392H63.4763V23.0316H64.3896V23.1801H63.4763V24.2135H64.7919V24.362H63.2556V21.8931V21.8939Z" fill="white" stroke="white" stroke-width="0.3"/>
    <path d="M65.9892 21.8901C66.5562 21.8901 66.8185 22.1422 66.8185 22.4811C66.8185 22.8682 66.5178 23.0484 66.2763 23.076C66.5178 23.1313 66.5874 23.2941 66.661 23.4734L67.0216 24.3623H66.7905C66.5106 23.6639 66.4091 23.4118 66.3915 23.3731C66.3211 23.2246 66.2307 23.159 66.0732 23.159H65.3694V24.3623H65.1487V21.8901H65.9884H65.9892ZM65.9892 22.9899C66.4546 22.9899 66.581 22.7166 66.581 22.5127C66.581 22.2947 66.4306 22.0426 65.9892 22.0426H65.3694V22.9899H65.9892Z" fill="white" stroke="white" stroke-width="0.3"/>
    <path d="M68.2717 23.3113V23.4875H67.292V23.3113H68.2717Z" fill="white" stroke="white" stroke-width="0.3"/>
    <path d="M69.3145 21.887C70.2486 21.887 70.6021 22.6375 70.6021 23.1353C70.6021 23.633 70.3254 24.3591 69.3177 24.3591H68.6843V21.887H69.3145ZM68.9122 24.0755C68.9122 24.2066 68.9154 24.2106 68.9994 24.2106H69.3177C69.7272 24.2106 70.3222 23.9617 70.3222 23.1353C70.3222 22.3089 69.7272 22.0355 69.3177 22.0355C68.9994 22.0355 68.9114 22.0387 68.9114 22.0632V24.0755H68.9122Z" fill="white" stroke="white" stroke-width="0.3"/>
    <path d="M71.8239 21.8901C72.3909 21.8901 72.6532 22.1422 72.6532 22.4811C72.6532 22.8682 72.3525 23.0484 72.111 23.076C72.3525 23.1313 72.4221 23.2941 72.4957 23.4734L72.8564 24.3623H72.6252C72.3453 23.6639 72.2438 23.4118 72.2262 23.3731C72.1558 23.2246 72.0654 23.159 71.9079 23.159H71.2041V24.3623H70.9834V21.8901H71.8231H71.8239ZM71.8239 22.9899C72.2894 22.9899 72.4157 22.7166 72.4157 22.5127C72.4157 22.2947 72.2654 22.0426 71.8239 22.0426H71.2041V22.9899H71.8239Z" fill="white" stroke="white" stroke-width="0.3"/>
    <path d="M73.2522 21.8901H73.4761V24.3623H73.2522V21.8901Z" fill="white" stroke="white" stroke-width="0.3"/>
    <path d="M75.0374 24.3623H74.6975L73.7842 21.8901H74.0289L74.8686 24.2035L75.7083 21.8901H75.985L75.0366 24.3623H75.0374Z" fill="white" stroke="white" stroke-width="0.3"/>
    <path d="M76.3433 21.8939H77.7956V22.0392H76.564V23.0316H77.4773V23.1801H76.564V24.2135H77.8795V24.362H76.3433V21.8931V21.8939Z" fill="white" stroke="white" stroke-width="0.3"/>
    <path d="M78.2329 21.894H78.5656L79.9547 24.0999V21.894H80.1858V24.363H79.9235L78.4568 22.0363V24.363H78.2329V21.894Z" fill="white" stroke="white" stroke-width="0.3"/>
    <path d="M83.3888 22.0355H82.4547V24.3623H82.2204V22.0355H81.2583V21.887H83.3896V22.0355H83.3888Z" fill="white" stroke="white" stroke-width="0.3"/>
    <path d="M84.446 21.8901C85.013 21.8901 85.2753 22.1422 85.2753 22.4811C85.2753 22.8682 84.9746 23.0484 84.7331 23.076C84.9746 23.1313 85.045 23.2941 85.1178 23.4734L85.4784 24.3623H85.2473C84.9674 23.6639 84.8658 23.4118 84.8482 23.3731C84.7779 23.2246 84.6875 23.159 84.53 23.159H83.8262V24.3623H83.6055V21.8901H84.4452H84.446ZM84.446 22.9899C84.9114 22.9899 85.0378 22.7166 85.0378 22.5127C85.0378 22.2947 84.8874 22.0426 84.446 22.0426H83.8262V22.9899H84.446Z" fill="white" stroke="white" stroke-width="0.3"/>
    <path d="M86.5389 21.8901H86.8996L87.7777 24.3623H87.5186L87.2035 23.4221H86.1815L85.7928 24.3623H85.5513L86.5381 21.8901H86.5389ZM86.7141 22.0039L86.2174 23.2759H87.1587L86.7141 22.0039Z" fill="white" stroke="white" stroke-width="0.3"/>
    <path d="M88.0232 21.894H88.3559L89.745 24.0999V21.894H89.9761V24.363H89.7138L88.2471 22.0363V24.363H88.0232V21.894Z" fill="white" stroke="white" stroke-width="0.3"/>
    <path d="M91.9644 22.1563C91.6389 22.0077 91.4254 21.9833 91.1703 21.9833C90.852 21.9833 90.5785 22.1563 90.5785 22.4605C90.5785 22.7646 90.7776 22.8752 91.1247 22.9685C91.5133 23.0862 92.042 23.2482 92.042 23.7743C92.042 24.3005 91.4334 24.4309 91.0967 24.4309C90.6872 24.4309 90.4249 24.3132 90.3026 24.2302V24.0019C90.4777 24.1299 90.7752 24.265 91.0967 24.265C91.4782 24.265 91.7757 24.0469 91.7757 23.7743C91.7757 23.6155 91.7445 23.3422 91.1351 23.1834H91.1383C90.6065 23.0348 90.3018 22.8547 90.3018 22.4573C90.3018 22.1357 90.6025 21.8347 91.1735 21.8347C91.6285 21.8347 91.8316 21.9145 91.9644 21.9801V22.1563Z" fill="white" stroke="white" stroke-width="0.3"/>
    <path d="M92.4058 21.894H94.0228V22.0465H92.6297V23.0317H93.4942V23.2048H92.6297V24.363H92.4058V21.894Z" fill="white" stroke="white" stroke-width="0.3"/>
    <path d="M96.8123 23.132C96.8123 23.8651 96.4453 24.4324 95.5 24.4324C94.5547 24.4324 94.1908 23.9102 94.1804 23.132C94.1804 22.285 94.6635 21.8489 95.5 21.8354C96.4133 21.8497 96.8123 22.285 96.8123 23.132ZM95.5 24.2768C95.6431 24.2768 96.578 24.2736 96.578 23.1288C96.578 21.984 95.6399 21.9879 95.4968 21.9879C95.3288 21.9879 94.4539 21.995 94.4539 23.1288C94.4539 24.2626 95.332 24.2768 95.5 24.2768Z" fill="white" stroke="white" stroke-width="0.3"/>
    <path d="M97.9743 21.8901C98.5413 21.8901 98.8036 22.1422 98.8036 22.4811C98.8036 22.8682 98.5029 23.0484 98.2614 23.076C98.5029 23.1313 98.5733 23.2941 98.6461 23.4734L99.0068 24.3623H98.7756C98.4957 23.6639 98.3942 23.4118 98.3766 23.3731C98.3062 23.2246 98.2158 23.159 98.0583 23.159H97.3545V24.3623H97.1338V21.8901H97.9735H97.9743ZM97.9743 22.9899C98.4397 22.9899 98.5661 22.7166 98.5661 22.5127C98.5661 22.2947 98.4158 22.0426 97.9743 22.0426H97.3545V22.9899H97.9743Z" fill="white" stroke="white" stroke-width="0.3"/>
    <path d="M100.597 24.0723L99.5954 22.0323C99.5954 22.7655 99.585 23.5642 99.585 24.363H99.3643V21.8909H99.7913L100.638 23.7444C100.701 23.8795 100.775 23.8242 100.809 23.7444C101.537 22.1295 101.6 21.9983 101.643 21.8909H102.039V24.363H101.815L101.811 22.0291L100.856 24.0723H100.597Z" fill="white" stroke="white" stroke-width="0.3"/>
    <path d="M103.201 21.8901H103.561L104.439 24.3623H104.18L103.865 23.4221H102.843L102.454 24.3623H102.213L103.2 21.8901H103.201ZM103.376 22.0039L102.879 23.2759H103.82L103.376 22.0039Z" fill="white" stroke="white" stroke-width="0.3"/>
    <path d="M106.218 22.0355H105.284V24.3623H105.049V22.0355H104.087V21.887H106.219V22.0355H106.218Z" fill="white" stroke="white" stroke-width="0.3"/>
    <path d="M106.473 21.8901H106.697V24.3623H106.473V21.8901Z" fill="white" stroke="white" stroke-width="0.3"/>
    <path d="M109.728 23.132C109.728 23.8651 109.361 24.4324 108.416 24.4324C107.47 24.4324 107.106 23.9102 107.096 23.132C107.096 22.285 107.579 21.8489 108.416 21.8354C109.329 21.8497 109.728 22.285 109.728 23.132ZM108.416 24.2768C108.559 24.2768 109.494 24.2736 109.494 23.1288C109.494 21.984 108.555 21.9879 108.412 21.9879C108.244 21.9879 107.369 21.995 107.369 23.1288C107.369 24.2626 108.248 24.2768 108.416 24.2768Z" fill="white" stroke="white" stroke-width="0.3"/>
    <path d="M110.047 21.894H110.38L111.769 24.0999V21.894H112V24.363H111.738L110.271 22.0363V24.363H110.047V21.894Z" fill="white" stroke="white" stroke-width="0.3"/>
    <path d="M21.4866 14.8543C21.4866 16.5018 20.139 17.8367 18.4777 17.8367H15.9651V21.755H18.6675C22.5515 21.755 25.6994 18.634 25.6994 14.7851C25.6994 10.9353 22.5507 7.81519 18.6675 7.81519H15.9651V11.872H18.4777C20.1398 11.872 21.4866 13.2077 21.4866 14.8543Z" fill="#4285F4"/>
    <path d="M0 21.8337L4.03096 21.8321L3.97219 3.99696H15.9642V0H0V21.8337Z" fill="#EB4335"/>
    <path d="M11.9768 25.711V11.8712H15.9641V7.81445H8.00464V29.7143H15.9641V25.711H11.9768Z" fill="#34A852"/>
    <path d="M33.5237 14.8575C33.5237 6.65189 26.8126 0 18.5339 0H15.9641V3.99696H18.6895C24.7391 3.99696 29.6436 8.85816 29.6436 14.8544C29.6436 17.4755 28.7066 19.8793 27.1469 21.755H31.8124C32.9043 19.6936 33.5237 17.3472 33.5237 14.8575Z" fill="#FABB05"/>
    <path d="M18.6905 25.7109H15.9651V29.7142H18.5349C24.301 29.7142 29.3063 26.4862 31.8134 21.7549H27.1479C25.1388 24.1705 22.0965 25.7109 18.6913 25.7109H18.6905Z" fill="#4285F4"/>
</svg>
