<svg width="37" height="37" viewBox="0 0 37 37" fill="none" xmlns="http://www.w3.org/2000/svg">
    <circle cx="18.5" cy="18.5" r="18.5" fill="url(#paint0_linear_22_12209)"/>
    <path fill-rule="evenodd" clip-rule="evenodd" d="M27.5 8.25C28.7375 8.25 29.75 9.2625 29.75 10.5V30.75L25.25 26.25H9.5C8.2625 26.25 7.25 25.2375 7.25 24V10.5C7.25 9.2625 8.2625 8.25 9.5 8.25H27.5ZM19.625 18.375H23C23.6187 18.375 24.125 17.8687 24.125 17.25C24.125 16.6313 23.6187 16.125 23 16.125H19.625V12.75C19.625 12.1312 19.1187 11.625 18.5 11.625C17.8813 11.625 17.375 12.1312 17.375 12.75V16.125H14C13.3812 16.125 12.875 16.6313 12.875 17.25C12.875 17.8687 13.3812 18.375 14 18.375H17.375V21.75C17.375 22.3687 17.8813 22.875 18.5 22.875C19.1187 22.875 19.625 22.3687 19.625 21.75V18.375Z" fill="white"/>
    <defs>
        <linearGradient id="paint0_linear_22_12209" x1="0" y1="18.5" x2="37" y2="18.5" gradientUnits="userSpaceOnUse">
            <stop stop-color="#8F61FF"/>
            <stop offset="0.529" stop-color="#4756FF"/>
            <stop offset="1" stop-color="#03C6FF"/>
        </linearGradient>
    </defs>
</svg>
