<svg width="22" height="22" viewBox="0 0 22 22" fill="none" xmlns="http://www.w3.org/2000/svg">
    <path d="M14.1504 0.0988282C13.9707 0.215625 13.7551 0.664844 13.6293 1.12305C13.4676 1.75195 13.4496 2.28203 13.5574 2.95586L13.6562 3.57578L13.3508 3.91719C13.1891 4.10586 12.2637 5.04922 11.3023 6.01055L9.55039 7.75352L8.99336 7.52891C8.68789 7.40312 8.17578 7.23242 7.86133 7.14258C7.34023 7.00781 7.16953 6.98984 6.21719 6.98984C5.23789 6.98984 5.12109 6.99883 4.62695 7.15156C3.97109 7.3582 3.40508 7.63672 2.91094 8.00508C2.42578 8.36445 2.29102 8.54414 2.29102 8.80469C2.29102 9.00234 2.4168 9.14609 4.32148 11.0598C5.43555 12.1828 6.34297 13.1262 6.325 13.1531C6.31602 13.1801 4.8875 14.8602 3.15352 16.8727C0.197656 20.3137 0 20.5563 0 20.7719C0 21.1492 0.341406 21.4008 0.682813 21.275C0.763672 21.248 2.4707 19.8016 4.47422 18.0676L8.11289 14.9051L10.1164 16.8996C11.2125 17.9957 12.1738 18.9211 12.2547 18.966C12.4703 19.0738 12.7219 18.984 12.9734 18.7055C13.4945 18.1305 13.9258 17.3488 14.1414 16.5223C14.2492 16.127 14.2762 15.8664 14.2762 15.0758C14.2852 14.2043 14.2672 14.0516 14.1055 13.4406C14.0066 13.0723 13.8359 12.5422 13.7102 12.2547L13.4855 11.7336L15.5789 9.64023L17.6723 7.55586L18.0316 7.63672C18.5168 7.75352 19.568 7.75352 20.0262 7.63672C20.8617 7.41211 21.2031 7.17852 21.2031 6.80117C21.2031 6.54961 21.1762 6.53164 17.9238 3.2793C15.0398 0.395313 14.6266 0 14.4648 0C14.366 0 14.2223 0.0449219 14.1504 0.0988282Z" fill="#405189"/>
</svg>
