<svg width="23" height="21" viewBox="0 0 23 21" fill="none" xmlns="http://www.w3.org/2000/svg">
    <path fill-rule="evenodd" clip-rule="evenodd" d="M14.0268 1.65761V1.41437C14.0268 0.64815 14.793 0.100853 15.4984 0.380583C19.6214 1.9495 22.5403 5.92653 22.5403 10.5968C22.5403 15.2671 19.6214 19.2441 15.4984 20.813C14.793 21.0806 14.0268 20.5454 14.0268 19.7792V19.536C14.0268 19.0738 14.3187 18.6725 14.7565 18.5022C17.8944 17.2495 20.1079 14.1725 20.1079 10.5968C20.1079 7.02112 17.8944 3.9441 14.7565 2.69139C14.3309 2.52112 14.0268 2.11977 14.0268 1.65761ZM0.648438 8.16437V13.0292C0.648438 13.6981 1.19573 14.2454 1.86465 14.2454H5.5133L9.51465 18.2468C10.2809 19.013 11.5944 18.4657 11.5944 17.3833V3.79815C11.5944 2.71572 10.2809 2.16842 9.51465 2.93464L5.5133 6.94815H1.86465C1.19573 6.94815 0.648438 7.49545 0.648438 8.16437ZM17.0674 10.5968C17.0674 8.4441 15.8268 6.59545 14.0268 5.69545V15.486C15.8268 14.5982 17.0674 12.7495 17.0674 10.5968Z" fill="#D3F1ED"/>
</svg>
