<svg width="19" height="19" viewBox="0 0 19 19" fill="none" xmlns="http://www.w3.org/2000/svg">
    <path d="M9.49967 1.58325C5.12967 1.58325 1.58301 5.12992 1.58301 9.49992C1.58301 13.8699 5.12967 17.4166 9.49967 17.4166C13.8697 17.4166 17.4163 13.8699 17.4163 9.49992C17.4163 5.12992 13.8697 1.58325 9.49967 1.58325Z" fill="#4285F4"/>
    <path d="M9.09972 12.7146C8.67924 13.0951 7.99999 13.0951 7.5795 12.7146L5.31535 10.6756C5.11346 10.4933 5 10.2459 5 9.9878C5 9.72974 5.11346 9.48227 5.31535 9.3C5.73583 8.91951 6.41508 8.91951 6.83557 9.3L8.33422 10.6561L13.1644 6.28537C13.5849 5.90488 14.2642 5.90488 14.6846 6.28537C15.1051 6.66585 15.1051 7.28049 14.6846 7.66098L9.09972 12.7146Z" fill="white"/>
</svg>
